<?xml version="1.0" encoding="UTF-8"?>
<svg width="100pt" height="100pt" version="1.1" viewBox="0 0 100 100" xmlns="http://www.w3.org/2000/svg">
 <path d="m97.199 44.301c-2.5-21.199-19.699-38.699-40.898-41.402-14.402-1.8984-28.602 2.8008-39 12.703-10.402 9.8984-15.801 23.797-14.699 38.199 1.8008 23.699 24 43.699 48.398 43.699 6.6992 0 12.699-3.5 16.102-9.3008 3.3008-5.6016 3.3008-12.398 0.10156-18-0.39844-0.69922-0.89844-1.3984-1.3008-2.1016-6.8008-10.398-15.703-14.098-15.801-14.199-1-0.39844-1.6016-1.6016-1.1992-2.6016 0.39844-1 1.6016-1.6016 2.6016-1.1992 0.19922 0.10156 10.801 4.3008 17.699 15.699 0.39844 0.60156 1.3008 0.60156 1.6016 0 5.1992-9.3984-2-21.301-14-27.5-8.8984-4.6992-13-9.5-14.801-12.898-1-1.8008-3.6992-1.8984-4.6992 0-15.805 27.801 8.4961 54.5 23.695 48.801 1.6992 3.3008 1.6016 7.1016-0.30078 10.301-2 3.5-5.6992 5.6016-9.6992 5.6016-20.699 0-39.5-16.898-41.102-37-0.89844-12.102 3.6016-23.902 12.402-32.203 8.8008-8.3984 20.898-12.301 33.102-10.699 17.898 2.3008 32.398 17 34.5 35 1.4961 12.602-2.9023 24.801-11.902 33.602-1.3008 1.3008-1.6992 3.3008-0.69922 4.8984 1.3008 1.8984 4 2.1016 5.6016 0.60156 10.797-10.402 15.996-25 14.297-40z"/>
</svg>
