<?xml version="1.0" encoding="UTF-8"?>
<svg width="100pt" height="100pt" version="1.1" viewBox="0 0 100 100" xmlns="http://www.w3.org/2000/svg">
 <g>
  <path d="m25 17.188c0 4.3164-3.4961 7.8125-7.8125 7.8125s-7.8125-3.4961-7.8125-7.8125 3.4961-7.8125 7.8125-7.8125 7.8125 3.4961 7.8125 7.8125"/>
  <path d="m92.188 3.125c-1.1992 0-2.2969 0.45312-3.125 1.1953-0.82812-0.74219-1.9258-1.1953-3.125-1.1953-2.5859 0-4.6875 2.1016-4.6875 4.6875h3.125c0-0.85938 0.69922-1.5625 1.5625-1.5625s1.5625 0.70312 1.5625 1.5625c0 0.86328 0.69922 1.5625 1.5625 1.5625s1.5625-0.69922 1.5625-1.5625c0-0.85938 0.69922-1.5625 1.5625-1.5625s1.5625 0.70312 1.5625 1.5625h3.125c0-2.5859-2.1016-4.6875-4.6875-4.6875z"/>
  <path d="m68.75 12.5c0.86328 0 1.5625 0.70312 1.5625 1.5625 0 0.86328 0.69922 1.5625 1.5625 1.5625s1.5625-0.69922 1.5625-1.5625c0-0.85938 0.69922-1.5625 1.5625-1.5625s1.5625 0.70312 1.5625 1.5625h3.125c0-2.5859-2.1016-4.6875-4.6875-4.6875-1.1992 0-2.2969 0.45312-3.125 1.1953-0.82812-0.74219-1.9258-1.1953-3.125-1.1953-2.5859 0-4.6875 2.1016-4.6875 4.6875h3.125c0-0.85938 0.69922-1.5625 1.5625-1.5625z"/>
  <path d="m86.449 82.812c-3.0391 0-4.6211 0.94922-6.0156 1.7852-1.25 0.75-2.2383 1.3398-4.4141 1.3398-2.1719 0-3.1562-0.58984-4.4062-1.3398-1.3945-0.83594-2.9727-1.7852-6.0117-1.7852-3.0352 0-4.6172 0.94922-6.0117 1.7852-1.2461 0.75-2.2305 1.3398-4.3984 1.3398-2.1719 0-3.1562-0.58984-4.4023-1.3398-1.3984-0.83594-2.9766-1.7852-6.0156-1.7852-3.0352 0-4.6172 0.94922-6.0117 1.7852-1.2461 0.75-2.2305 1.3398-4.4023 1.3398s-3.1562-0.58984-4.4023-1.3398c-1.3945-0.83594-2.9727-1.7852-6.0117-1.7852-3.0391 0-4.6172 0.94922-6.0117 1.7852-1.2422 0.75-2.2305 1.3398-4.3984 1.3398-2.1719 0-3.1562-0.58984-4.3984-1.3398-1.3945-0.83594-2.9766-1.7852-6.0117-1.7852v3.125c2.1719 0 3.1562 0.58984 4.3984 1.3398 1.3945 0.83594 2.9766 1.7852 6.0117 1.7852s4.6172-0.94922 6.0117-1.7852c1.2461-0.75 2.2305-1.3398 4.3984-1.3398 2.168 0 3.1562 0.58984 4.4023 1.3398 1.3945 0.83594 2.9766 1.7852 6.0117 1.7852s4.6172-0.94922 6.0117-1.7852c1.2461-0.75 2.2344-1.3398 4.4023-1.3398 2.1719 0 3.1562 0.58984 4.4062 1.3398 1.3945 0.83594 2.9766 1.7852 6.0117 1.7852s4.6172-0.94922 6.0078-1.7852c1.2461-0.75 2.2344-1.3398 4.4023-1.3398 2.1719 0 3.1562 0.58984 4.4062 1.3398 1.3945 0.83594 2.9766 1.7852 6.0117 1.7852 3.0391 0 4.6211-0.94922 6.0156-1.7852 1.25-0.75 2.2383-1.3398 4.4102-1.3398 2.1719 0 3.1602 0.58984 4.4062 1.3398 1.4023 0.83594 2.9844 1.7852 6.0234 1.7852v-3.125c-2.1758 0-3.1602-0.58984-4.4102-1.3398-1.3945-0.83594-2.9805-1.7852-6.0156-1.7852z"/>
  <path d="m86.449 90.625c-3.0391 0-4.6211 0.94922-6.0156 1.7852-1.25 0.75-2.2383 1.3398-4.4141 1.3398-2.1719 0-3.1562-0.58984-4.4062-1.3398-1.3945-0.83594-2.9727-1.7852-6.0117-1.7852-3.0352 0-4.6172 0.94922-6.0117 1.7852-1.2461 0.75-2.2305 1.3398-4.3984 1.3398-2.1719 0-3.1562-0.58984-4.4023-1.3398-1.3984-0.83594-2.9766-1.7852-6.0156-1.7852-3.0352 0-4.6172 0.94922-6.0117 1.7852-1.2461 0.75-2.2305 1.3398-4.4023 1.3398s-3.1562-0.58984-4.4023-1.3398c-1.3945-0.83594-2.9727-1.7852-6.0117-1.7852-3.0391 0-4.6172 0.94922-6.0117 1.7852-1.2422 0.75-2.2305 1.3398-4.3984 1.3398-2.1719 0-3.1562-0.58984-4.3984-1.3398-1.3945-0.83594-2.9766-1.7852-6.0117-1.7852v3.125c2.1719 0 3.1562 0.58984 4.3984 1.3398 1.3945 0.83594 2.9766 1.7852 6.0117 1.7852s4.6172-0.94922 6.0117-1.7852c1.2461-0.75 2.2305-1.3398 4.3984-1.3398 2.168 0 3.1562 0.58984 4.4023 1.3398 1.3945 0.83594 2.9766 1.7852 6.0117 1.7852s4.6172-0.94922 6.0117-1.7852c1.2461-0.75 2.2344-1.3398 4.4023-1.3398 2.1719 0 3.1562 0.58984 4.4062 1.3398 1.3945 0.83594 2.9766 1.7852 6.0117 1.7852s4.6172-0.94922 6.0078-1.7852c1.2461-0.75 2.2344-1.3398 4.4023-1.3398 2.1719 0 3.1562 0.58984 4.4062 1.3398 1.3945 0.83594 2.9766 1.7852 6.0117 1.7852 3.0391 0 4.6211-0.94922 6.0156-1.7852 1.25-0.75 2.2383-1.3398 4.4102-1.3398 2.1719 0 3.1602 0.58984 4.4062 1.3398 1.4023 0.83594 2.9844 1.7852 6.0234 1.7852v-3.125c-2.1758 0-3.1602-0.58984-4.4102-1.3398-1.3945-0.83594-2.9805-1.7852-6.0156-1.7852z"/>
  <path d="m15.625 3.125h3.125v3.125h-3.125z"/>
  <path d="m15.625 28.125h3.125v3.125h-3.125z"/>
  <path d="m28.125 15.625h3.125v3.125h-3.125z"/>
  <path d="m3.125 15.625h3.125v3.125h-3.125z"/>
  <path d="m23.816 8.3477 2.2109-2.2109 2.2109 2.2109-2.2109 2.2109z"/>
  <path d="m6.1406 26.027 2.2109-2.2109 2.2109 2.2109-2.2109 2.2109z"/>
  <path d="m23.816 26.027 2.2109-2.2109 2.2109 2.2109-2.2109 2.2109z"/>
  <path d="m6.1367 8.3477 2.2109-2.2109 2.2109 2.2109-2.2109 2.2109z"/>
  <path d="m84.375 58.855v-7.293h3.125c3.4531 0 6.25-2.7969 6.25-6.25 0-2.3398-1.3047-4.3594-3.207-5.4297 0.027343-0.27344 0.082031-0.53906 0.082031-0.82031 0-4.3125-3.5-7.8125-7.8125-7.8125s-7.8125 3.5-7.8125 7.8125c0 0.28125 0.054688 0.54688 0.082031 0.82031-1.9023 1.0703-3.207 3.0898-3.207 5.4297 0 3.4531 2.7969 6.25 6.25 6.25h3.125v8.332l-7.8125 2.6055h-10.938v-7.8125h3.125c3.4531 0 6.25-2.7969 6.25-6.25 0-2.3398-1.3047-4.3594-3.207-5.4297 0.027343-0.27344 0.082031-0.53906 0.082031-0.82031 0-4.3125-3.5-7.8125-7.8125-7.8125s-7.8125 3.5-7.8125 7.8125c0 0.28125 0.054688 0.54688 0.082031 0.82031-1.9023 1.0703-3.207 3.0898-3.207 5.4297 0 3.4531 2.7969 6.25 6.25 6.25h3.125v7.8125h-7.8125l-10.938 2.9844v-7.6719h3.125c3.4531 0 6.25-2.7969 6.25-6.25 0-2.3398-1.3047-4.3594-3.207-5.4297 0.027343-0.27344 0.082031-0.53906 0.082031-0.82031 0-4.3125-3.5-7.8125-7.8125-7.8125s-7.8125 3.5-7.8125 7.8125c0 0.28125 0.054688 0.54688 0.082031 0.82031-1.9023 1.0703-3.207 3.0898-3.207 5.4297 0 3.4531 2.7969 6.25 6.25 6.25h3.125v8.5234l-3.125 0.85156h-15.625v-7.8125h3.125c3.4531 0 6.25-2.7969 6.25-6.25 0-2.3398-1.3047-4.3594-3.207-5.4297 0.027343-0.27344 0.082031-0.53906 0.082031-0.82031 0-4.3125-3.5-7.8125-7.8125-7.8125s-7.8125 3.5-7.8125 7.8125c0 0.28125 0.054688 0.54688 0.082031 0.82031-1.9023 1.0703-3.207 3.0898-3.207 5.4297 0 3.4531 2.7969 6.25 6.25 6.25h3.125v7.8125h-12.5v10.938h93.75v-21.875h-4.6875z"/>
 </g>
</svg>
