<?xml version="1.0" encoding="UTF-8"?>
<svg width="100pt" height="100pt" version="1.1" viewBox="0 0 100 100" xmlns="http://www.w3.org/2000/svg">
 <g>
  <path d="m7.1016 48.891 10.973 37.914h63.867l10.957-37.914zm56.34 6.7148-2.4688 6.6445c-0.22266 0.59766-0.79297 0.99219-1.4297 0.99219l-19.078 0.003906c-0.63672 0-1.207-0.39453-1.4297-0.99219l-2.4688-6.6445c-0.17188-0.46875-0.10547-0.99219 0.17578-1.4023 0.28516-0.41016 0.75391-0.65234 1.2539-0.65234h24.016c0.5 0 0.96875 0.24609 1.2539 0.65625 0.28516 0.40234 0.35156 0.92578 0.17578 1.3945z"/>
  <path d="m83.359 4.2852h-66.734c-0.84375 0-1.5273 0.68359-1.5273 1.5273v9.5703h69.785v-9.5703c0-0.84375-0.67969-1.5273-1.5234-1.5273zm-30.637 7.7031c-1.1914 0.042969-2.1914-0.88672-2.2344-2.0781s0.88672-2.1914 2.0781-2.2344 2.1914 0.88672 2.2344 2.0781-0.88672 2.1914-2.0781 2.2344zm8.0156 0.003907c-1.1914 0-2.1562-0.96484-2.1562-2.1562 0-1.1914 0.96484-2.1562 2.1562-2.1562 1.1914 0 2.1562 0.96484 2.1562 2.1562 0 1.1875-0.96484 2.1562-2.1562 2.1562zm17.531 0.54297c0 0.84375-0.68359 1.5273-1.5273 1.5273h-8.793c-0.84375 0-1.5273-0.68359-1.5273-1.5273l0.003906-5.4023c0-0.84375 0.68359-1.5273 1.5273-1.5273h8.793c0.84375 0 1.5273 0.68359 1.5273 1.5273z"/>
  <path d="m68.852 36.836c-1.043 0-2.2852 0.58984-2.9297 1.3203-0.011719 0.20703-0.011719 0.41406-0.035156 0.61719h10.102c-0.36328-3.6094-3.4258-6.4375-7.1367-6.4375-1.2734 0-2.4883 0.32812-3.5703 0.95312 0.003906 0.007813 0.003906 0.011719 0.003906 0.019532 0.14844 0.41797 0.26953 0.84766 0.36719 1.2812 0.99609-0.50391 2.1211-0.80078 3.1953-0.80078 0.84375 0 1.5273 0.68359 1.5273 1.5273 0.003906 0.83984-0.67969 1.5195-1.5234 1.5195z"/>
  <path d="m44.352 30.484c-1.9492-3.4375-5.582-5.5625-9.5078-5.5625-6 0-10.879 4.875-10.879 10.863 0 1.0156 0.14062 2.0156 0.42188 2.9883h20.918c0.67969-2.8125 0.60937-5.3906-0.89063-8.1719-0.027343-0.035156-0.046874-0.074218-0.0625-0.11719zm-10.875-0.11719c-2.1992 0.55469-3.8828 2.4375-4.1836 4.6797-0.10156 0.76562-0.75781 1.3242-1.5117 1.3242-0.066406 0-0.13672-0.003906-0.20703-0.011719-0.83594-0.11328-1.4219-0.87891-1.3086-1.7148 0.47266-3.5234 3.0117-6.3633 6.4609-7.2344 0.81641-0.20312 1.6445 0.28906 1.8516 1.1055 0.21094 0.81641-0.28516 1.6445-1.1016 1.8516z"/>
  <path d="m20.91 35.785c0-7.6758 6.25-13.914 13.93-13.914 4.457 0 8.6094 2.1367 11.23 5.6797 2.1445-1.6484 4.793-2.582 7.5234-2.582 4.1797 0 8.0703 2.1445 10.332 5.5859 1.5-0.83203 3.1719-1.2695 4.9258-1.2695 5.3945 0 9.8164 4.1953 10.188 9.4883h5.8477v-20.34h-69.793v20.344h6.1523c-0.21484-0.98438-0.33594-1.9805-0.33594-2.9922z"/>
  <path d="m48.445 38.773h14.352c0.30078-1.9688-0.003906-3.7812-0.76953-5.3828-1.5312-3.2695-4.8398-5.375-8.4336-5.375-2.1914 0-4.3203 0.78906-5.9883 2.1914 0.050781 0.11719 0.085937 0.24219 0.13672 0.35938 0.0625 0.15625 0.125 0.30859 0.17969 0.46484 1.7383-1.2031 4.0117-1.8672 5.9258-1.5469 0.83203 0.14062 1.3906 0.92969 1.25 1.7617-0.14062 0.82812-0.92969 1.3906-1.7578 1.2461-1.4766-0.24219-3.6797 0.69922-4.6367 1.9141 0.046875 0.45703 0.070313 0.91406 0.070313 1.375-0.003907 0.98828-0.13281 2.1172-0.32813 2.9922z"/>
  <path d="m41.527 60.195h16.953l1.3359-3.5938h-19.625z"/>
  <path d="m69.48 8.6602h5.7383v2.3477h-5.7383z"/>
  <path d="m91.582 41.828h-81.609l-2.2812 4.0156h85.152z"/>
  <path d="m18.449 92.926c0 1.5391 1.25 2.7891 2.7891 2.7891h57.527c1.5391 0 2.7891-1.25 2.7891-2.7891v-3.0586h-63.105z"/>
 </g>
</svg>
