<?xml version="1.0" encoding="UTF-8"?>
<svg width="100pt" height="100pt" version="1.1" viewBox="0 0 100 100" xmlns="http://www.w3.org/2000/svg">
 <g>
  <path d="m64.344 11.812h-58.359c-0.85938 0-1.5469 0.6875-1.5469 1.5469v71.766c0 0.84375 0.6875 1.5469 1.5469 1.5469h58.359c0.85938 0 1.5625-0.70312 1.5625-1.5469v-71.766c0-0.85938-0.70312-1.5469-1.5625-1.5469zm-29.172 66.562c-11.812 0-21.406-9.5938-21.406-21.391s9.5938-21.406 21.406-21.406c11.797 0 21.391 9.6094 21.391 21.406s-9.5938 21.391-21.391 21.391zm27.625-52.906h-55.266v-10.562h55.266z"/>
  <path d="m35.172 39.422c-9.6875 0-17.562 7.875-17.562 17.562 0 9.6719 7.875 17.547 17.562 17.547 9.6719 0 17.547-7.875 17.547-17.547 0-9.6875-7.875-17.562-17.547-17.562zm0 32.016c-7.9844 0-14.469-6.4844-14.469-14.453s6.4844-14.469 14.469-14.469c7.9688 0 14.453 6.5 14.453 14.469s-6.4844 14.453-14.453 14.453z"/>
  <path d="m60.766 20.141c0 2.6562-2.1562 4.8125-4.8125 4.8125-2.6406 0-4.7969-2.1562-4.7969-4.8125 0-2.6406 2.1562-4.7969 4.7969-4.7969 2.6562 0 4.8125 2.1562 4.8125 4.7969z"/>
  <path d="m43.344 18.281v4.0781c0 0.84375-0.6875 1.5469-1.5469 1.5469h-30.188c-0.85938 0-1.5469-0.70312-1.5469-1.5469v-4.0781c0-0.85938 0.6875-1.5469 1.5469-1.5469h30.188c0.85938 0 1.5469 0.6875 1.5469 1.5469z"/>
  <path d="m94.016 71.938h-2.0469c0.5625-0.76562 0.89062-1.75 0.89062-2.7969 0-0.96875-0.28125-1.875-0.76562-2.625 0.5-0.73438 0.76562-1.6406 0.76562-2.5938 0-0.96875-0.26562-1.875-0.76562-2.625 0.5-0.73438 0.76562-1.6406 0.76562-2.5938 0-2.5312-1.9062-4.5938-4.2656-4.5938h-14.328c-2.3438 0-4.25 2.0625-4.25 4.5938 0 0.96875 0.26562 1.8594 0.75 2.6094-0.48438 0.75-0.75 1.6406-0.75 2.6094s0.26562 1.8594 0.75 2.6094c-0.46875 0.75-0.75 1.6406-0.75 2.6094 0 1.0469 0.32812 2.0312 0.89062 2.7969h-2.4688c-0.85938 0-1.5469 0.6875-1.5469 1.5469 0 8.25 4.1875 14.703 9.5469 14.703h9.5781c5.3594 0 9.5469-6.4531 9.5469-14.703 0-0.85938-0.6875-1.5469-1.5469-1.5469zm-19.75-14.734h14.328c0.64062 0 1.1719 0.67188 1.1719 1.5 0 0.28125-0.0625 0.54688-0.17188 0.76562-0.32812-0.09375-0.65625-0.14062-1-0.14062h-14.328c-0.32812 0-0.67188 0.046875-0.98438 0.125-0.125-0.21875-0.17188-0.48438-0.17188-0.75 0-0.82812 0.51562-1.5 1.1562-1.5zm-0.48438 5.375c0.15625-0.10938 0.3125-0.15625 0.48438-0.15625h14.328c0.1875 0 0.34375 0.046875 0.54688 0.1875 0.375 0.25 0.625 0.75 0.625 1.3125 0 0.26562-0.0625 0.53125-0.17188 0.75-0.3125-0.078125-0.65625-0.125-1-0.125h-14.328c-0.34375 0-0.67188 0.046875-0.98438 0.125-0.125-0.21875-0.17188-0.48438-0.17188-0.75 0-0.5625 0.23438-1.0469 0.67188-1.3438zm-0.03125 5.2344c0.015625 0 0.03125-0.015625 0.046875-0.03125 0.14062-0.09375 0.29688-0.14062 0.46875-0.14062h14.328c0.64062 0 1.1719 0.6875 1.1719 1.5s-0.53125 1.4844-1.1719 1.4844h-14.328c-0.625 0-1.1562-0.67188-1.1562-1.4844 0-0.57812 0.26562-1.0625 0.64062-1.3281z"/>
 </g>
</svg>
