<?xml version="1.0" encoding="UTF-8"?>
<svg width="100pt" height="100pt" version="1.1" viewBox="0 0 100 100" xmlns="http://www.w3.org/2000/svg">
 <g>
  <path d="m50 100c-25.602 0-46.398-20.801-46.398-46.398 0-25.602 20.797-46.402 46.398-46.402s46.398 20.801 46.398 46.398c0 25.602-20.797 46.402-46.398 46.402zm0-90.398c-24.301 0-44 19.699-44 44 0 24.301 19.699 44 44 44s44-19.699 44-44c0-24.301-19.699-44-44-44z"/>
  <path d="m86.699 23.5 3.6992-3.6992-6.7969-6.8008-3.6992 3.6992c2.4961 2.1016 4.7969 4.3008 6.7969 6.8008z"/>
  <path d="m70.5 18.199-20.5 35.402v-40.902c7.5 0 14.398 2 20.5 5.5z"/>
  <path d="m38.898 0h22.199v5.5h-22.199z"/>
  <path d="m42.5 4.3008h14.898v4.1016h-14.898z"/>
 </g>
</svg>
