

<?xml version="1.0" encoding="UTF-8"?>
<svg width="100pt" height="100pt" version="1.1" viewBox="0 0 100 100" xmlns="http://www.w3.org/2000/svg">
 <g>
  <path d="m71.508 43.02c-2.8008 0-5.0781 1.6758-5.0781 3.7344s2.2773 3.7383 5.0781 3.7383c2.8008 0 5.0781-1.6758 5.0781-3.7383 0-2.0586-2.2773-3.7344-5.0781-3.7344z"/>
  <path d="m56.48 31.098c-3.4453-0.054687-6.6562-0.078125-9.5469-0.078125-22.465 0-27.945 1.5273-30.195 4.3438-0.34766 0.43359-0.27734 0.63672-0.25 0.71094 0.51172 1.4805 6.418 2.8477 11.625 4.0586 1.3594 0.31641 2.7539 0.64063 4.1484 0.98047 7.0547 1.7305 10.273 4.2305 13.996 7.1289 2.3633 1.8359 5.0391 3.918 9.1367 6.1289 6.0312 3.2461 11.32 3.9297 14.699 3.9297 2.2422 0 3.7383-0.29297 4.2773-0.41797 7.5859-1.7578 11.949-6.1133 11.387-11.371-0.78906-7.4531-11.102-15.137-29.277-15.414zm15.027 20.957c-3.6641 0-6.6406-2.3789-6.6406-5.3008s2.9766-5.2969 6.6406-5.2969c3.6641 0 6.6406 2.375 6.6406 5.2969 0 2.9258-2.9805 5.3008-6.6406 5.3008z"/>
  <path d="m44.613 24.457c-6.668 0-12.379 0.46875-15.992 0.85938-9.1641 0.99219-16.129 3.9727-19.621 8.3828-1.9766 2.5-2.7852 5.3438-2.3984 8.4453 1 8.0078 8.1602 11.449 21.898 15.336 6.3203 1.7891 11.758 5.418 17.02 8.9297 5.6992 3.8047 11.082 7.3984 17.215 8.5117 2.2812 0.41406 4.6055 0.625 6.9102 0.625 10.129 0 17.617-4.0352 20.367-5.7695 4.2578-2.6836 3.6523-14.723 3.0586-19.133-1.6797-21.652-27.277-26.188-48.457-26.188zm30.121 34.941c-0.59375 0.14062-2.2305 0.46094-4.6367 0.46094-3.5586 0-9.125-0.71484-15.441-4.1133-4.2148-2.2695-6.9453-4.3945-9.3555-6.2695-3.7305-2.9023-6.6797-5.1914-13.41-6.8438-1.3867-0.33984-2.7773-0.66406-4.1289-0.97656-7.6328-1.7734-11.992-2.8828-12.75-5.0664-0.17578-0.5-0.22656-1.2852 0.50391-2.1992 2.6172-3.2695 8.1914-4.9297 31.418-4.9297 2.8984 0 6.1172 0.027343 9.5703 0.078124 19.082 0.29297 29.945 8.6758 30.812 16.805 0.65234 6.1016-4.168 11.105-12.582 13.055z"/>
 </g>
</svg>







