<?xml version="1.0" encoding="UTF-8"?>
<svg width="100pt" height="100pt" version="1.1" viewBox="0 0 100 100" xmlns="http://www.w3.org/2000/svg">
 <g>
  <path d="m86.699 23.5 3.6992-3.6992-6.7969-6.8008-3.6992 3.6992c2.4961 2.1016 4.7969 4.3008 6.7969 6.8008z"/>
  <path d="m70.5 18.199c-6.1016-3.5-13-5.5-20.5-5.5v40.898l35.398-20.5c-3.5977-6.1992-8.6992-11.398-14.898-14.898z"/>
  <path d="m57.398 7.8008v-2.3008h3.6992l0.003906-5.5h-22.203v5.5h3.6016v2.3008c-22 3.6016-38.898 22.699-38.898 45.801 0 25.598 20.797 46.398 46.398 46.398s46.398-20.801 46.398-46.398c0-23.102-16.898-42.301-39-45.801zm-7.3984 89.801c-24.301 0-44-19.699-44-44 0-24.301 19.699-44 44-44s44 19.699 44 44c0 24.297-19.699 44-44 44z"/>
 </g>
</svg>
