<?xml version="1.0" encoding="UTF-8"?>
<svg width="100pt" height="100pt" version="1.1" viewBox="0 0 100 100" xmlns="http://www.w3.org/2000/svg">
 <g>
  <path d="m83.848 25.824c0-5.6055-9.8906-16.922-9.8906-16.922s-9.8906 11.32-9.8906 16.922c0 5.6055 4.3945 10.109 9.8906 10.109 5.4922 0 9.8906-4.5039 9.8906-10.109zm-5.3867 4.8359c-1.4297 1.207-2.9688 1.6484-4.3945 1.6484-1.9766 0-3.7344-0.87891-4.6172-1.6484-0.76953-0.66016-0.87891-1.7578-0.32812-2.6367 0.66016-0.76953 1.7578-0.87891 2.6367-0.32813 0.21875 0.21875 2.3086 1.6484 4.3945 0 0.76953-0.66016 1.9766-0.55078 2.6367 0.32813 0.66016 0.76953 0.55078 1.9766-0.32812 2.6367z"/>
  <path d="m52.09 25.605c-0.32812-0.44141-0.87891-0.66016-1.4297-0.66016-0.55078 0-0.98828 0.21875-1.4297 0.66016-0.98828 1.0977-24.066 27.145-24.066 40.77 0 14.066 11.43 25.383 25.496 25.383s25.383-11.43 25.383-25.383c0-13.52-23.074-39.672-23.953-40.77zm-6.375 38.57 8.1328 1.6484 2.3086 0.44141 0.32812 0.10938c1.5391 0.21875 4.8359 1.7578 5.1641 5.8242v0.10938 0.21875c0 3.957-3.7344 7.1445-8.3516 7.1445h-1.207v3.7344h-3.7383v-3.7344h-0.32812c-4.6172 0-8.3516-3.1875-8.3516-7.1445h3.7344c0 1.8672 2.0898 3.4062 4.6172 3.4062h5.2734c2.5273 0 4.6172-1.5391 4.6172-3.4062v-0.21875c-0.21875-1.9766-1.7578-2.3086-2.0898-2.418l-0.32812-0.10938-10.551-2.0898c-3.2969-0.76953-5.2734-3.0781-5.2734-6.043v-0.32813c0-3.957 3.7344-7.1445 8.3516-7.1445h0.32812v-4.0664h3.7344v4.0664h1.207c4.6172 0 8.3516 3.1875 8.3516 7.1445h-3.7344c0-1.8672-2.0898-3.4062-4.6172-3.4062h-5.2734c-2.5273 0-4.6172 1.5391-4.6172 3.4062v0.32813c0.003906 1.3203 0.77344 2.1992 2.3125 2.5273z"/>
  <path d="m22.418 60.66c4.2852-13.734 14.727-25.605 14.727-25.605-4.1758-6.5938-9.3398-12.527-9.3398-12.527s-14.395 16.484-14.395 24.617c-0.003906 6.043 7.3594 18.898 9.0078 13.516z"/>
 </g>
</svg>
