<?xml version="1.0" encoding="UTF-8"?>
<svg width="100pt" height="100pt" version="1.1" viewBox="0 0 100 100" xmlns="http://www.w3.org/2000/svg">
 <path d="m50 2.5s-30.199 38.051-30.199 64.801c0 16.68 13.523 30.199 30.199 30.199 16.68 0 30.199-13.523 30.199-30.199 0-26.75-30.199-64.801-30.199-64.801zm19.93 68.422c-1.3398 7.3984-6.8594 13.586-14.07 15.77-0.25391 0.074219-0.50781 0.11719-0.76172 0.11719-1.1406 0-2.1836-0.73828-2.5352-1.8789-0.42188-1.3945 0.37109-2.8594 1.7617-3.2812 5.332-1.6133 9.4141-6.1953 10.406-11.664 0.26562-1.4375 1.6367-2.3867 3.0703-2.1211 1.4414 0.25 2.3906 1.6211 2.1289 3.0586z"/>
</svg>
