<?xml version="1.0" encoding="UTF-8"?>
<svg width="100pt" height="100pt" version="1.1" viewBox="0 0 100 100" xmlns="http://www.w3.org/2000/svg">
 <g>
  <path d="m9.0078 61.938h-3.5234c-1.0977 0-1.9961 0.89453-1.9961 1.9961v27.406c0 1.1055 0.89453 1.9961 1.9961 1.9961h3.5234c1.1016 0 1.9961-0.89453 1.9961-1.9961v-2.9531-0.003907-20.98-0.003906-3.4648c0.003906-1.0977-0.89453-1.9961-1.9961-1.9961z"/>
  <path d="m95.367 59.703c-1.4844-0.78906-6.9258-1.1211-25.395 12.477 0.0625 0.22266 0.11328 0.45312 0.15625 0.69141 0.33984 1.7305-0.035156 3.25-1.1094 4.5195-3.4375 4.0547-13.199 4.2969-21.324 4.0547-0.59375-0.019531-1.0625-0.03125-1.3594-0.03125h-5.7109c-0.61328 0-1.1094-0.49609-1.1094-1.1094 0-0.61328 0.49609-1.1094 1.1094-1.1094h5.7109c0.32812 0 0.8125 0.011719 1.4219 0.03125 4.0508 0.12109 16.379 0.48438 19.566-3.2695 0.63281-0.74609 0.83594-1.5938 0.62109-2.6602-0.082031-0.43359-0.1875-0.8125-0.3125-1.1445-0.003906-0.003906-0.003906-0.007813-0.003906-0.007813-0.87891-2.3594-2.8008-2.3359-7.4531-2.0547-4.2188 0.25781-9.9961 0.61328-17.266-1.6211-13.168-4.0508-26.391-1.0859-29.691-0.22266v19.164c3.8438 0.50781 17.809 2.4492 24.016 4.5703l0.29688 0.10156c6.8242 2.3359 15.32 5.2383 28.078-4.5742 2.6211-2.0156 5.4609-4.1797 8.2109-6.2734 9.5781-7.3047 21.461-16.359 22.664-18.223 0-0.03125 0.003906-0.066407 0.003906-0.10547 0.050781-1.2617-0.042969-2.6328-1.1211-3.2031z"/>
  <path d="m50.215 57.094c8.7031 0 15.785-7.0273 15.785-15.668 0-3.7344-1.1602-6.1523-2.5039-8.9531l-12.754-26.508c-0.097657-0.20703-0.30078-0.33203-0.53125-0.33203-0.21484 0-0.42578 0.13281-0.51953 0.33203l-12.742 26.512c-1.3477 2.8086-2.5117 5.2383-2.5117 8.9531 0 8.6367 7.0742 15.664 15.777 15.664z"/>
 </g>
</svg>
