<?xml version="1.0" encoding="UTF-8"?>
<svg width="100pt" height="100pt" version="1.1" viewBox="0 0 100 100" xmlns="http://www.w3.org/2000/svg">
 <g>
  <path d="m19.555 55.859h-13.5v30.469h13.168z"/>
  <path d="m90.391 63.82c-0.03125 0.011719-0.0625 0.027344-0.09375 0.039063l-20.844 6.5039c-0.089844 0.19922-0.19531 0.39453-0.3125 0.57812-0.91016 1.4258-2.4805 2.293-4.1719 2.3008h-13.953c-0.64453 0-1.1719-0.52344-1.1719-1.1719 0-0.64844 0.52734-1.1719 1.1719-1.1719h13.953c0.89844-0.003907 1.7305-0.46875 2.2031-1.2305 0.48438-0.74609 0.5625-1.6836 0.20312-2.5-0.35547-0.8125-1.0977-1.3945-1.9766-1.543l-19.621-3.2695c-0.035156-0.007813-0.070313-0.015625-0.10547-0.023438l-8.0547-2.1328c-2.5664-0.67578-5.2578-0.69531-7.8281-0.054688l-7.957 1.9883-0.21094 19.016 2.9805-1.3242c1.6367-0.72266 3.4648-0.87891 5.1953-0.44141l18.316 4.6328h0.003907c5.7383 1.4531 11.805 0.79297 17.098-1.8516l27.305-13.652c0.65625-0.32812 1.1406-0.91797 1.3359-1.625 0.19141-0.70703 0.074219-1.4648-0.32422-2.082-0.67188-1.0391-1.9922-1.4531-3.1406-0.98438z"/>
  <path d="m65.68 19.09c-3.8828 0-7.6094 1.543-10.359 4.293-2.7461 2.7461-4.2891 6.4727-4.2891 10.359 0 3.8867 1.543 7.6133 4.2891 10.359 2.75 2.7461 6.4766 4.293 10.359 4.293 3.8867 0 7.6133-1.543 10.359-4.293 2.75-2.7461 4.293-6.4727 4.293-10.359-0.003906-3.8828-1.5508-7.6094-4.2969-10.355-2.7461-2.7461-6.4688-4.293-10.355-4.2969zm3.4297 11.379c0.64844 0 1.1719 0.52344 1.1719 1.1719s-0.52344 1.1719-1.1719 1.1719h-8.9961c-0.015625 0.19531-0.023437 0.37109-0.023437 0.55469 0.003906 0.33594 0.027344 0.67578 0.078125 1.0078h7.4023c0.64844 0 1.1719 0.52344 1.1719 1.1719s-0.52344 1.1719-1.1719 1.1719h-6.5469c1.1367 1.957 3.2461 3.1484 5.5117 3.1133 1.3906 0.007813 2.7461-0.44141 3.8594-1.2734 0.51953-0.39062 1.25-0.28516 1.6406 0.23047 0.38672 0.51953 0.28516 1.25-0.23438 1.6406-1.5156 1.1406-3.3672 1.7539-5.2656 1.7461-3.6641 0-6.8086-2.332-8.1289-5.457h-0.98828c-0.64844 0-1.1719-0.52344-1.1719-1.1719s0.52344-1.1719 1.1719-1.1719h0.38672c-0.035157-0.33594-0.058594-0.67188-0.058594-1.0078 0-0.18359 0.007812-0.35938 0.019531-0.55469h-0.34766c-0.64844 0-1.1719-0.52344-1.1719-1.1719s0.52344-1.1719 1.1719-1.1719h0.81641c1.1953-3.3203 4.4648-5.8828 8.3008-5.8828 1.9023 0.003906 3.75 0.625 5.2656 1.7734 0.51562 0.39062 0.62109 1.1211 0.23047 1.6367-0.38672 0.51562-1.1211 0.62109-1.6367 0.23047-1.5234-1.1445-3.4766-1.5586-5.332-1.125-1.8594 0.42969-3.4297 1.6641-4.2891 3.3672z"/>
  <path d="m65.68 13.664v-0.003906c-5.3242 0.003906-10.43 2.1172-14.195 5.8828s-5.8828 8.875-5.8828 14.199c0 5.3242 2.1172 10.434 5.8828 14.199s8.8711 5.8789 14.199 5.8789c5.3242 0 10.43-2.1133 14.195-5.8789s5.8828-8.875 5.8828-14.199c-0.007813-5.3242-2.125-10.43-5.8867-14.191-3.7656-3.7656-8.8711-5.8828-14.195-5.8867zm0 37.074c-4.5039 0-8.8281-1.793-12.016-4.9805s-4.9766-7.5078-4.9766-12.016c0-4.5078 1.7891-8.832 4.9766-12.016 3.1875-3.1875 7.5078-4.9805 12.016-4.9805 4.5078 0 8.832 1.793 12.02 4.9805 3.1875 3.1836 4.9766 7.5078 4.9766 12.016-0.003906 4.5039-1.7969 8.8242-4.9844 12.012-3.1836 3.1836-7.5039 4.9766-12.012 4.9844z"/>
 </g>
</svg>
