<?xml version="1.0" encoding="UTF-8"?>
<svg width="100pt" height="100pt" version="1.1" viewBox="0 0 100 100" xmlns="http://www.w3.org/2000/svg">
 <g>
  <path d="m47.332 45.34c-0.55078 0.76953-1.3672 1.2812-2.3008 1.4375-1.9922 0.33594-4.0195 0.58594-6.0664 0.75781h58.906c1.1758 0 2.1289-0.95312 2.1289-2.1289s-0.95312-2.1289-2.1289-2.1289h-3.1914v-9.2773c0-4.0469-3.2812-7.3281-7.3281-7.3281-4.0469 0-7.3281 3.2812-7.3281 7.3281h2.1289c0.003906-2.8711 2.3281-5.1953 5.1992-5.1992 2.8711 0.003907 5.1953 2.3281 5.1992 5.1992v4.918h-1.832v-1.2852h-1.5078v4.0781h1.5078v-1.2852h1.832v2.8516l-44.566 0.003906c0.003906 0.73438-0.21875 1.4492-0.65234 2.0586z"/>
  <path d="m25.949 47.535c-6.582-0.54688-10.957-1.7383-11.559-1.9102-0.93359-0.27344-1.6836-0.87891-2.1367-1.7109-0.45312-0.83203-0.55859-1.7891-0.28906-2.6992 0.44141-1.5 1.8398-2.5508 3.4023-2.5508 0.33594 0 0.67187 0.046876 1 0.14453h0.007812l0.042969 0.011718c0.035156 0.011719 0.097656 0.027344 0.17969 0.050782 0.18359 0.046875 0.46484 0.12109 0.83594 0.20703 0.69141 0.16406 1.8242 0.41016 3.2852 0.66016 0.023438 0.003907 0.046875 0.007813 0.066406 0.011719-1.8672-2.6914-5.1953-4.2891-7.6328-2.9414-1.9102 1.0547-3.5039 3.4219-3.5312 6.4688l-7.4922 0.003906c-1.1758 0-2.1289 0.95312-2.1289 2.1289 0 1.1758 0.95312 2.1289 2.1289 2.1289h2.5977z"/>
  <path d="m94.207 49.074h-88.414s0.16797 0.875 0.5 2.3047c1.2148 5.2266 4.6211 17.902 10.02 22.734l-4.0664 4.0664c-0.71875 0.71875-0.71875 1.8828 0 2.6016s1.8828 0.71875 2.6016 0l4.8516-4.8516c0.32422 0.0625 0.65234 0.097656 0.98828 0.097656h58.629c0.33594 0 0.66406-0.035156 0.98828-0.097656l4.8516 4.8516c0.71875 0.71875 1.8828 0.71875 2.6016 0s0.71875-1.8828 0-2.6016l-4.0664-4.0664c6.8711-6.1523 10.516-25.039 10.516-25.039z"/>
  <path d="m18.391 22.695c2.1875 3.8242 0.86719 8.6953-2.957 10.887-3.8203 2.1914-8.6953 0.87109-10.887-2.9531-2.1914-3.8203-0.86719-8.6953 2.9531-10.887 3.8242-2.1914 8.6992-0.86719 10.891 2.9531"/>
  <path d="m44.91 46.078c1.5469-0.25781 2.5898-1.7227 2.3281-3.2656-0.25781-1.5469-1.7227-2.5898-3.2656-2.3281-4.1055 0.6875-8 0.94141-11.504 0.94141-4.875 0-8.9961-0.49219-11.879-0.98438-1.4414-0.24609-2.5703-0.48828-3.3281-0.66797-0.37891-0.089844-0.66406-0.16406-0.85156-0.21484-0.09375-0.023438-0.16016-0.042969-0.20312-0.054688-0.042969-0.011718-0.046875-0.011718-0.046875-0.011718-1.5039-0.44141-3.082 0.42187-3.5234 1.9219-0.44141 1.5039 0.41797 3.0781 1.9219 3.5195 0.17969 0.050781 7.3906 2.1562 17.902 2.1602 3.7891 0.007812 7.9922-0.26562 12.449-1.0156z"/>
 </g>
</svg>
