<?xml version="1.0" encoding="UTF-8"?>
<svg width="100pt" height="100pt" version="1.1" viewBox="0 0 100 100" xmlns="http://www.w3.org/2000/svg">
 <g>
  <path d="m92.836 7.1641c-1.2188-1.2188-3.1992-1.2188-4.418 0l-81.25 81.25c-1.2188 1.2188-1.2188 3.1992 0 4.418 0.60938 0.61328 1.4062 0.91797 2.207 0.91797s1.5977-0.30469 2.2109-0.91406l9.6172-9.6172h8.8945c3.3125 0 5.9688-2.6875 5.9688-5.9688v-1.5625h28.375v1.5625c0 3.2812 2.6875 5.9688 5.9688 5.9688h11.219c3.3125 0 5.9688-2.6875 5.9688-5.9688v-4.6875h3.0273c1.7188 0 3.125-1.4062 3.125-3.125 0-1.4688-1-2.6875-2.3438-3v-6.9375c0-6.9062-4.0625-12.875-9.9375-15.688l-1.5-3.875h3.8438v0.8125c0 1.7188 1.375 3.125 3.125 3.125 1.7188 0 3.125-1.4062 3.125-3.125v-2.8125c0-2.3438-1.9062-4.25-4.25-4.25h-8.3125l-1.9102-4.8594 17.242-17.242c1.2227-1.2227 1.2227-3.1992 0.003907-4.4219zm-52.961 59.148h-1.7695l2.6406-2.6406zm20.75 0-1.25-3.875c-0.59375-1.1562-1.75-1.875-3.0312-1.875h-12.156c-0.13281 0-0.25391 0.039062-0.38281 0.054688l6.3047-6.3047h6.2383c3.8164 0.023438 7.5312 2.418 8.9062 6l1.9688 6zm1.668-24.188 8.4766-8.4766 2.4805 6.3516 0.84375 2.125zm14.051 12.188h0.03125c1.7188 0 3.125 1.375 3.125 3.125 0 1.7188-1.4062 3.125-3.125 3.125s-3.1562-1.4062-3.1562-3.125c0-1.75 1.4062-3.125 3.125-3.125z"/>
  <path d="m9.0938 59.5v6.8438c-1.5938 0.125-2.8438 1.4375-2.8438 3.0938 0 1.7188 1.4062 3.125 3.125 3.125h3.5312v1.2812l31.719-31.719h-18l7.0312-18.062c0.25-0.625 0.84375-1.0312 1.5312-1.0312h28.531l5.375-5.375c-1.0938-0.5625-2.2812-0.875-3.5625-0.875h-30.344c-3.2812 0-6.1562 1.9688-7.3438 5.0312l-4.6562 11.875h-8.3125c-2.3125 0-4.2188 1.9062-4.2188 4.25v2.8125c0 1.7188 1.4062 3.125 3.125 3.125s3.125-1.4062 3.125-3.125v-0.8125h3.8438l-1.4688 3.75c-6 2.75-10.188 8.8125-10.188 15.812zm15.344-5.1875h0.03125c1.7188 0 3.125 1.375 3.125 3.125 0 1.7188-1.4062 3.125-3.125 3.125-1.75 0-3.1562-1.4062-3.1562-3.125 0-1.75 1.375-3.125 3.125-3.125z"/>
 </g>
</svg>
