<?xml version="1.0" encoding="UTF-8"?>
<svg width="100pt" height="100pt" version="1.1" viewBox="0 0 100 100" xmlns="http://www.w3.org/2000/svg">
 <path d="m9.375 72.562h3.5312v4.6719c0 3.2969 2.6836 5.9766 5.9805 5.9766h11.215c3.2969 0 5.9805-2.6836 5.9805-5.9766v-1.5469h28.355v1.5469c0 3.2969 2.6836 5.9766 5.9805 5.9766h11.215c3.2969 0 5.9805-2.6836 5.9805-5.9766v-4.6719h3.0117c1.7188 0 3.125-1.4062 3.125-3.125 0-1.4688-1-2.6875-2.3438-3v-6.9375c0-6.9062-4.0625-12.875-9.9375-15.688l-1.5-3.875h3.8438v0.8125c0 1.7188 1.375 3.125 3.125 3.125 1.7188 0 3.125-1.4062 3.125-3.125v-2.8125c0-2.3438-1.9062-4.25-4.25-4.25h-8.3125l-4.6562-11.875c-1.1875-3.0625-4.0625-5.0312-7.3125-5.0312h-30.344c-3.2812 0-6.1562 1.9688-7.3438 5.0312l-4.6562 11.875h-8.3125c-2.3125 0-4.2188 1.9062-4.2188 4.25v2.8125c0 1.7188 1.4062 3.125 3.125 3.125s3.125-1.4062 3.125-3.125v-0.8125h3.8438l-1.4688 3.75c-6 2.75-10.188 8.8125-10.188 15.812v6.8438c-1.5938 0.125-2.8438 1.4375-2.8438 3.0938 0 1.7188 1.4062 3.125 3.125 3.125zm51.25-6.25-1.25-3.875c-0.59375-1.1562-1.75-1.875-3.0312-1.875h-12.156c-1.2812 0-2.4688 0.71875-3.0312 1.875l-1.2812 3.875h-6.5625l1.9375-6c0.03125-0.125 0.09375-0.21875 0.125-0.34375 1.5625-3.4375 5-5.6562 8.8125-5.6562h12.156c3.7812 0 7.2188 2.2188 8.7812 5.6562 0.0625 0.125 0.09375 0.21875 0.125 0.34375l1.9688 6zm15.719-12h0.03125c1.7188 0 3.125 1.375 3.125 3.125 0 1.7188-1.4062 3.125-3.125 3.125s-3.1562-1.4062-3.1562-3.125c0-1.75 1.4062-3.125 3.125-3.125zm-42.688-30.25c0.25-0.625 0.84375-1.0312 1.5312-1.0312h30.344c0.65625 0 1.25 0.40625 1.5 1.0312l7.0625 18.062h-47.469zm-9.2188 30.25h0.03125c1.7188 0 3.125 1.375 3.125 3.125 0 1.7188-1.4062 3.125-3.125 3.125-1.75 0-3.1562-1.4062-3.1562-3.125 0-1.75 1.375-3.125 3.125-3.125z"/>
</svg>
