<?xml version="1.0" encoding="UTF-8"?>
<svg width="100pt" height="100pt" version="1.1" viewBox="0 0 100 100" xmlns="http://www.w3.org/2000/svg">
 <g>
  <path d="m72.102 87.801h-8.6016l-1.8984-20.898 0.10156-17.102c0-0.10156 0.10156-0.10156 0.10156-0.10156 0.10156 0 0.10156 0.10156 0.10156 0.10156 0.19922 1.3984 2.1016 14.102 2.1992 14.199 0.19922 1.3008 1.3008 2.1992 2.6016 2.1992h0.39844c1.3984-0.19922 2.3984-1.5 2.1992-3 0-0.10156-1.6992-10.898-2.1992-14.199-0.60156-3.8984-3.1992-6.8984-6.8008-7.8984-0.19922-0.10156-0.5 0-0.69922 0.10156-1.3984 0.80078-3 1.1992-4.6992 1.1992s-3.3008-0.39844-4.6992-1.1992c-0.19922-0.10156-0.5-0.19922-0.69922-0.10156-3.6016 1-6.1992 4-6.8008 7.8984-0.5 3.3008-2.1016 14.102-2.1992 14.199-0.19922 1.3984 0.80078 2.6992 2.1992 3h0.39844c1.3008 0 2.3984-0.89844 2.6016-2.1992 0-0.10156 1.8984-12.602 2.1016-14.102 0-0.10156 0.10156-0.10156 0.19922-0.19922 0.10156 0 0.30078 0.10156 0.30078 0.19922v17l-1.8984 20.898-13.609 0.003906v-78.699c0-2.1016 1.6992-3.8984 3.8984-3.8984 0.89844 0 1.6992 0.30078 2.3008 0.80078l2.6992-1.3008c-1.1992-1.3984-3-2.3008-5-2.3008-3.6992 0-6.6016 3-6.6016 6.6016v78.699h-2.1992c-0.69922 0-1.1992 0.60156-1.1992 1.1992v3.0977c0 3.1016 2.5 5.5 5.5 5.5h35.699c3.1016 0 5.5-2.5 5.5-5.5v-2.8984c0-0.70312-0.59766-1.3008-1.2969-1.3008zm-17.402-19.602c0-0.10156 0.10156-0.10156 0.10156-0.10156 0.10156 0 0.10156 0.10156 0.10156 0.10156l1.8008 19.699h-3.8984z"/>
  <path d="m38.602 8.8008 0.39844 0.89844c-1.1992 1.3008-1.6016 3-0.89844 4.8008 0.10156 0.19922 0.30078 0.30078 0.5 0.19922l10.5-4.6992c0.19922-0.10156 0.30078-0.39844 0.19922-0.60156-1-1.6992-2.5-2.3984-4.3008-2.3984l-0.5-1c-0.30078-0.60156-1-0.80078-1.6016-0.60156l-3.6992 1.8008c-0.59766 0.30078-0.89844 1-0.59766 1.6016z"/>
  <path d="m38.5 16.699 0.39844 0.89844c0.10156 0.19922 0.39844 0.30078 0.60156 0.19922l11.398-5.3984c0.19922-0.10156 0.30078-0.39844 0.19922-0.60156l-0.39844-0.79688c-0.10156-0.19922-0.39844-0.30078-0.60156-0.19922l-11.398 5.3984c-0.30078 0-0.30078 0.30078-0.19922 0.5z"/>
  <path d="m43.625 18.559c0.56641 1.207-1.2461 2.0586-1.8125 0.85156-0.56641-1.207 1.2461-2.0586 1.8125-0.85156"/>
  <path d="m47.105 16.875c0.56641 1.207-1.2461 2.0586-1.8125 0.85156-0.56641-1.207 1.2461-2.0586 1.8125-0.85156"/>
  <path d="m50.629 15.277c0.56641 1.207-1.2422 2.0586-1.8086 0.85156-0.56641-1.207 1.2422-2.0586 1.8086-0.85156"/>
  <path d="m44.418 21.848c0.56641 1.207-1.2461 2.0586-1.8125 0.85156-0.56641-1.207 1.2461-2.0586 1.8125-0.85156"/>
  <path d="m48.5 19.875c0.56641 1.207-1.2422 2.0586-1.8086 0.85156-0.56641-1.207 1.2422-2.0586 1.8086-0.85156"/>
  <path d="m52.723 17.957c0.56641 1.207-1.2461 2.0547-1.8125 0.84766-0.56641-1.207 1.2461-2.0547 1.8125-0.84766"/>
  <path d="m45.125 25.18c0.56641 1.207-1.2461 2.0547-1.8125 0.85156-0.56641-1.207 1.2461-2.0586 1.8125-0.85156"/>
  <path d="m49.902 22.883c0.56641 1.207-1.2422 2.0586-1.8086 0.85156s1.2422-2.0586 1.8086-0.85156"/>
  <path d="m54.723 20.676c0.56641 1.207-1.2422 2.0547-1.8086 0.84766-0.56641-1.207 1.2422-2.0547 1.8086-0.84766"/>
  <path d="m62.102 32.699c0 3.9766-3.2266 7.1992-7.2031 7.1992-3.9766 0-7.1992-3.2227-7.1992-7.1992 0-3.9766 3.2227-7.1992 7.1992-7.1992 3.9766 0 7.2031 3.2227 7.2031 7.1992"/>
 </g>
</svg>
