<?xml version="1.0" encoding="UTF-8"?>
<svg width="100pt" height="100pt" version="1.1" viewBox="0 0 100 100" xmlns="http://www.w3.org/2000/svg">
 <g>
  <path d="m69.199 30.898c-1.1992 0.19922-2.6016 1.1992-4.6992 1.6016-3.6992 0.80078-6.3008-0.19922-6.3008-0.19922-1-0.30078-1.8984-0.80078-2.8008-1.3984-1-0.69922-2-1.5-3.1016-2.3984-1.1016-0.89844-2.5-1.8984-4.1016-2.6016-1-0.39844-2.1016-0.69922-3.1016-0.89844-1.5 0.89844-3.3008 1.3008-5.1016 1.3008-1.8984 0-3.6992-0.5-5.1992-1.3984-0.10156 0-0.30078 0-0.39844 0.10156-1.6992 0.30078-3.5 0.80078-5.1016 2-0.80078 0.60156-1.8008 1.6992-2.3008 2.5-0.60156 1-0.89844 2.3984-1 3-0.29297 0.49219-0.99219 3.5938-0.99219 3.5938l-3.3984 16.102c-0.30078 1.3008 0.5 2.6016 1.8008 2.8984 1.3008 0.30078 2.6992-0.5 3-1.8008l4.1016-16 1.1992-4.5-1.8008 21.301c-0.10156 1.3984 0.60156 2.6992 1.8008 3.3984-0.80078 12.199-1.6992 24.398-2.3984 36.602-0.10156 1.6992 1.1016 3.1016 2.8008 3.3008 1.6992 0.19922 3.3008-1 3.5-2.8008 1.3008-11.301 2.5-22.5 3.6992-33.801h1.3008l3.6992 33.801c0.19922 1.6992 1.6992 2.8984 3.3008 2.8008 1.6992-0.10156 3-1.6016 2.8984-3.3984l-2.5039-36.504c1.1992-0.69922 2-2 1.8984-3.3984l-1.8008-21.398c0.19922 0.10156 0.39844 0.30078 0.60156 0.39844 1 0.80078 2.1016 1.6992 3.3984 2.6016 1.3008 0.89844 2.8984 1.6992 4.5 2.1016 0.39844 0.10156 0.80078 0.19922 1.3008 0.30078 5.1016 0.80078 8.8008-0.80078 10-1.3008 1.3008-0.5 5.1992-2 3.6016-4.6016-0.60156-1.1016-1.3984-1.5039-2.3008-1.3047z"/>
  <path d="m47.898 15.801c0 4.418-3.582 8-8 8-4.418 0-8-3.582-8-8s3.582-8 8-8c4.418 0 8 3.582 8 8"/>
  <path d="m69.801 2.8008c-0.39844-0.39844-1.1016-0.39844-1.5 0-2.3008 2.0977-8.6992 8.6992-8.6992 14.199 0 6.6992 4.8984 9.3008 9.3984 9.3008s9.3984-2.6016 9.3984-9.3008c0-5.5-6.3984-12.102-8.5977-14.199zm-0.60156 20.5c-3.1992 0-6.3984-2.3008-6.3984-6.8008 0-0.5 0.39844-1 1-1 0.5 0 1 0.39844 1 1 0 3.3008 2.3008 4.8008 4.5 4.8008 0.5 0 1 0.39844 1 1-0.10156 0.59766-0.5 1-1.1016 1z"/>
 </g>
</svg>
