<?xml version="1.0" encoding="UTF-8"?>
<svg width="100pt" height="100pt" version="1.1" viewBox="0 0 100 100" xmlns="http://www.w3.org/2000/svg">
 <g>
  <path d="m39.801 27.398c-0.30078-1.1016-1.3008-1.8008-2.3984-1.8984-1.1016-0.10156-2.1992 0.5-2.6992 1.5l-6.7031 12.602c-1.6992-0.39844-3.3984-0.5-5.1016-0.5-1.6992 0-3.3984 0.19922-5.1016 0.5l-6.6992-12.602c-0.5-1-1.6016-1.6016-2.6992-1.5-1.1016 0.10156-2.1016 0.89844-2.3984 1.8984-2.6992 8.6016-5.1992 19.5-2 23.203 0.30078 0.39844 0.69922 0.69922 1.1016 0.89844-0.39844 1.6016-0.69922 3.3984-0.69922 5.3984v0.89844c0 1.1992-0.10156 1.5-0.19922 2.1992-0.10156 0.39844-0.19922 0.89844-0.39844 1.6992-0.10156 0.60156-0.10156 1.1992-0.10156 1.8008 0 5.1016 2.3008 9.5 6.8008 10.301 0.10156 0 0.39844 0 0.69922 0.10156 5.3008 0.30078 10-3.8008 10.102-9.1992v-0.30078l-2-2.6992c-1-1.3984 0-3.3984 1.6992-3.3984h3.6992c1.6992 0 2.6992 2 1.6992 3.3984l-2 2.6992v0.30078c0.10156 5.6016 5.3008 10 10.801 9.1016 4.5-0.80078 6.8008-5.1992 6.8008-10.301 0-0.60156 0-1.1992-0.10156-1.8008-0.10156-0.80078-0.30078-1.3008-0.39844-1.6992-0.19922-0.69922-0.19922-1-0.19922-2.1992v-0.89844c0-2-0.19922-3.8008-0.69922-5.3984 0.39844-0.30078 0.69922-0.60156 1.1016-0.89844 3.3945-3.707 0.79297-14.605-1.9062-23.207zm-32.102 18.5c-1.1016-1.1992-0.5-7.1992 1.5-13.5 0 0 0-0.10156 0.10156-0.10156 0.10156 0 0.10156 0 0.10156 0.10156l3.8008 8.5c-2.3047 0.80078-4.4023 2.4023-5.5039 5zm8.6016 10c-1.8008 0-3.1992-1.3984-3.1992-3.1992 0-1.6992 1.3984-3.1992 3.1992-3.1992s3.1992 1.3984 3.1992 3.1992-1.3984 3.1992-3.1992 3.1992zm13.301 0c-1.8008 0-3.1992-1.3984-3.1992-3.1992 0-1.6992 1.3984-3.1992 3.1992-3.1992 1.8008 0 3.1992 1.3984 3.1992 3.1992s-1.5 3.1992-3.1992 3.1992zm8.5977-10c-1.1016-2.6016-3.1992-4.1992-5.6016-5.1016l3.8984-8.5s0-0.10156 0.10156-0.10156c0.10156 0 0.10156 0.10156 0.10156 0.10156 2 6.4023 2.6016 12.402 1.5 13.602z"/>
  <path d="m96.898 58.398c-2.1992-2.1016-4.6992-2.8984-6.8984-3.1992-0.19922-1.5-0.60156-2.8984-1.1992-4.3008-0.10156-0.30078-0.10156-0.5-0.10156-0.80078l0.69922-4.1992c0.19922-1.3008 0.30078-2.6992 0.30078-3.8984 0-2.1016-0.30078-4.3008-0.89844-6.3984-0.39844-1.3984-1.6992-2.3984-3.1992-2.3984-0.80078 0-1.6016 0.30078-2.1992 0.89844-2.1016 1.8984-3.8008 4.1016-5.1016 6.6016-0.19922 0.39844-0.69922 0.69922-1.1992 0.5-3.5-1-7.6016-1-11 0-0.5 0.10156-1-0.10156-1.1992-0.5-1.3008-2.5-3-4.6992-5.1016-6.6016-0.69922-0.60156-1.5-0.89844-2.3984-0.80078-1.5 0.10156-2.6992 1.3008-3.1016 2.6992-0.5 2-0.80078 4-0.80078 6 0 1.3984 0.10156 2.6992 0.30078 4l0.69922 4.1992c0 0.30078 0 0.5-0.10156 0.80078-0.60156 1.3984-1 2.8008-1.1992 4.3008-2.1992 0.19922-4.6992 1.1016-6.8984 3.1992-0.69922 0.69922-0.80078 1.8984-0.10156 2.6016 0.39844 0.39844 0.80078 0.60156 1.3008 0.60156s0.89844-0.19922 1.3008-0.5c1.3008-1.1992 2.8008-1.8008 4.1992-2.1016 0 0.89844 0.10156 1.6992 0.30078 2.5-1.6016 0.5-3.1992 1.3008-4.6992 2.6992-0.69922 0.69922-0.80078 1.8984-0.10156 2.6016 0.39844 0.39844 0.80078 0.60156 1.3008 0.60156s0.89844-0.19922 1.3008-0.5c1.1016-1 2.1992-1.6016 3.3984-1.8984 2.1016 3.8984 8.3984 7 12.699 8.8008 2.8008 1.1992 6 1.1992 8.8008 0 4.3008-1.8008 10.602-4.8984 12.699-8.8008 1.1992 0.30078 2.3008 0.89844 3.3984 1.8984 0.39844 0.30078 0.80078 0.5 1.3008 0.5s1-0.19922 1.3008-0.60156c0.69922-0.69922 0.69922-1.8984-0.10156-2.6016-1.5-1.3984-3.1016-2.1992-4.6992-2.6992 0.19922-0.80078 0.30078-1.6016 0.30078-2.5 1.3984 0.30078 2.8984 0.80078 4.1992 2.1016 0.39844 0.30078 0.80078 0.5 1.3008 0.5s1-0.19922 1.3008-0.60156c0.69922-0.90234 0.69922-2-0.10156-2.7031zm-39.398-11.797c-0.30078-1.6016-0.69922-6.6016 0.10156-8.6992 0.60156-0.80078 3.8008 5.1992 3.8008 5.1992-1.4023 0.69922-3.0039 2.1992-3.9023 3.5zm6.8984 9.5c-1.8008 0-3.1992-1.3984-3.1992-3.1992 0-1.8008 1.3984-3.1992 3.1992-3.1992 1.8008 0 3.1992 1.3984 3.1992 3.1992-0.097656 1.7969-1.4961 3.1992-3.1992 3.1992zm10.301 6-2 2.6016c-0.60156 0.69922-1.6992 0.69922-2.1992 0l-2-2.6016c-0.69922-0.89844 0-2.3008 1.1016-2.3008h3.8984c1.1992 0 1.8984 1.3984 1.1992 2.3008zm4.1016-6c-1.8008 0-3.1992-1.3984-3.1992-3.1992 0-1.8008 1.3984-3.1992 3.1992-3.1992s3.1992 1.3984 3.1992 3.1992c0 1.7969-1.5 3.1992-3.1992 3.1992zm6.8008-9.5c-0.89844-1.3008-2.5-2.8008-3.8984-3.5 0 0 3.1992-6 3.8008-5.1992 0.89453 2.0977 0.39453 7.0977 0.097656 8.6992z"/>
 </g>
</svg>
