<?xml version="1.0" encoding="UTF-8"?>
<svg width="100pt" height="100pt" version="1.1" viewBox="0 0 100 100" xmlns="http://www.w3.org/2000/svg">
 <path d="m66.293 52.855c-1.9062-3.4492-4.2422-6.2461-6.5859-8.1992-2.7344 2.0039-6.0625 3.2227-9.6992 3.2227-3.6367 0-6.9727-1.2227-9.7031-3.2227-2.3438 1.9531-4.6797 4.7461-6.5977 8.1992-4.4453 8.0078-4.9336 16.223-1.0977 18.352 1.7188 0.97656 3.5234 0.24219 5.3828-1.5508-0.32813 1.8203-0.52344 3.7891-0.52344 5.8516 0 9.1797 3.5586 16.602 7.9453 16.602 2.6445 0 3.9531-2.7031 4.582-6.8359 0.62891 4.1016 1.9375 6.8359 4.5781 6.8359 4.3633 0 7.9531-7.4219 7.9531-16.602 0-2.0625-0.19531-4.0352-0.52344-5.8516 1.8672 1.793 3.668 2.5391 5.3906 1.5508 3.8438-2.1289 3.3438-10.34-1.1016-18.352zm-16.293-8.1016c7.3828 0 13.371-5.9883 13.371-13.371 0-7.3867-5.9883-13.371-13.371-13.371s-13.375 5.9883-13.375 13.371c0 7.3867 5.9922 13.371 13.375 13.371z"/>
</svg>
