<?xml version="1.0" encoding="UTF-8"?>
<svg width="100pt" height="100pt" version="1.1" viewBox="0 0 100 100" xmlns="http://www.w3.org/2000/svg">
 <g>
  <path d="m13.984 26.758c2.1406 0 3.8633-1.7188 3.8633-3.8008 0-2.0859-1.7227-3.7812-3.8633-3.7812-2.1211 0-3.8438 1.6953-3.8438 3.7812 0 2.0859 1.7227 3.8008 3.8438 3.8008zm0-5.5391c0.97656 0 1.7852 0.77734 1.7852 1.7383 0 0.96094-0.80859 1.7578-1.7852 1.7578s-1.7656-0.79688-1.7656-1.7578c0-0.96094 0.78906-1.7383 1.7656-1.7383z"/>
  <path d="m67.094 71.125c-2.2852 0.20312-5.6719 0.55469-9.3047 1.1055l0.39453 3.4531c6.5195-0.65234 12.504-3.0234 17.531-6.6406-0.3125 0.14453-0.625 0.28906-0.95703 0.36719 0 0.019532-2.5977 1.2461-7.6641 1.7148z"/>
  <path d="m71.957 9.1641c1.3906 0.94141 2.3242 2.5352 2.3242 4.332 0 0.71484-0.21094 1.4102-0.5 2.0625 7.7695 5.8867 12.418 15.062 12.418 24.75 0 6.7227-2.1602 13.102-6.1875 18.496l0.25 0.87891c0.58203 2 0.33594 4.125-0.68359 5.9688-0.10156 0.18359-0.25 0.32812-0.35547 0.48828 7.0039-6.5195 11.402-15.734 11.402-25.832 0-13.387-7.5586-25.074-18.668-31.145z"/>
  <path d="m35.773 35.262c-0.14844 0.42969-0.21094 0.87891-0.23047 1.3906-0.019531 0.39062-0.25 0.69531-0.58203 0.85938 0.58203-0.14062 1.1641-0.28516 1.7695-0.42969 1.5352-0.40625 2.9883-0.85938 4.4453-1.2891 0.10156-0.039063 0.25-0.082031 0.37109-0.12109 2.1797-0.71484 4.3203-1.4922 6.3125-2.2266 0.26953-0.10156 0.5625-0.22656 0.85156-0.32812l0.28906-0.10156c1.3711-0.53125 2.6562-1.0625 3.8828-1.5508l0.6875-0.28906c0.3125-0.10156 0.5625-0.20312 0.78906-0.30469 0.29297-0.125 0.58203-0.24609 0.85547-0.34766l0.25-0.082032c0.125-0.0625 0.25-0.125 0.4375-0.16406 4.0898-1.5156 6.957-1.9453 7.0625-1.9609 0.60156-0.16406 1.3477-0.28906 2.0977-0.28906 0.64062 0 1.2891 0.082031 1.8906 0.24609-0.85156-1.4922-2.2227-2.6367-3.9062-3.1875-3.5742-1.1445-7.3945 0.65234-8.7227 4.1055-0.019531 0.0625-0.039063 0.125-0.085938 0.18359-0.082031 0.125-0.1875 0.24219-0.3125 0.32422s-0.26953 0.14453-0.41406 0.16406c-0.125 0.019531-0.25 0.019531-0.375 0-0.10547-0.019531-0.22656-0.0625-0.3125-0.125-0.14844-0.082031-0.25-0.18359-0.35547-0.30469-0.082031-0.12109-0.125-0.26562-0.16406-0.40625v-0.20312c0-1.8789-1.2266-3.5156-3.0547-4.1094-1.9727-0.63281-4.1328 0.18359-5.1289 1.9219-0.16406 0.28906-0.45703 0.49219-0.78906 0.51172-0.35156 0.042968-0.66406-0.082032-0.89062-0.32813-0.46094-0.53125-1.1016-0.92187-1.7891-1.125-1.1211-0.36719-2.2812-0.28516-3.3203 0.24609-1.0625 0.51172-1.8281 1.4102-2.2031 2.4922-0.51953 1.5312-0.085937 3.25 1.0781 4.3516 0.35547 0.32812 0.4375 0.85938 0.16406 1.2695-0.28516 0.47266-0.47266 0.85937-0.59766 1.207z"/>
  <path d="m23.121 39.84c0.16406-0.019532 0.33203-0.0625 0.51953-0.10156-0.55859-0.042969-1.0156-0.51172-0.97656-1.082 0.51953-9.75 5.7344-18.844 13.98-24.301 0.47656-0.30469 1.1211-0.18359 1.4297 0.28516 0.33203 0.46875 0.20703 1.1055-0.26953 1.4102-7.707 5.1094-12.586 13.59-13.066 22.703-0.039062 0.55078-0.5 0.98047-1.0352 0.98047 1.9297-0.28906 4.5898-0.73438 7.3281-1.3281 0.85156-0.16406 1.6797-0.36719 2.5117-0.55078 0.3125-0.082031 0.60156-0.16406 0.91406-0.22656-0.57812-0.023437-1.0156-0.49219-0.99609-1.0625 0.023437-0.69531 0.125-1.3281 0.33203-1.9414 0.10156-0.30469 0.25-0.63281 0.41797-0.96094-1.3125-1.6328-1.7266-3.8398-1.0625-5.8633 0.53906-1.6133 1.6836-2.9219 3.2188-3.6992 1.5352-0.75781 3.2812-0.89844 4.9023-0.36719 0.64453 0.1875 1.2461 0.49219 1.7891 0.87891 1.6406-1.8789 4.3594-2.6367 6.8359-1.8398 1.7422 0.55078 3.1133 1.7578 3.8594 3.3125 2.3047-2.8594 6.2305-4.1289 9.9297-2.9453 2.9922 0.96094 5.2344 3.3945 6.0039 6.3984 1.4297 1.043 2.5547 2.5156 3.0312 4.1875l6.5625 22.543c3.1562-4.7422 4.8398-10.219 4.8398-15.961 0-9.0117-4.2969-17.535-11.508-23.051-0.99609 0.91797-2.3047 1.4727-3.6758 1.4727-2.5938 0-4.7539-1.8203-5.2344-4.2109-1.6758 0.058594-3.0273-1.207-3.1719-2.8008-3.3867-0.71484-7.043-0.85938-10.656-0.32812-0.53906 0.082031-1.1016-0.28516-1.1836-0.85938-0.085937-0.55078 0.30859-1.082 0.87109-1.1641 3.8828-0.57031 7.8125-0.41016 11.465 0.36719 0.54297-0.81641 1.5156-1.3477 2.5977-1.3477 0.83203 0 1.6016 0.32422 2.1602 0.87891 0.89453-0.65234 1.9922-1.0234 3.1562-1.0234 0.66406 0 1.3086 0.125 1.9141 0.36719-4.9414-2.4922-10.512-3.9219-16.434-3.9219-19.98 0-36.219 15.98-36.219 35.621 0 0.16406 0 0.32812 0.019531 0.51172 1.2852-0.30469 2.9023-0.65625 4.8984-0.98047z"/>
  <path d="m77.875 58.863c-0.023438-0.039062-0.039062-0.0625-0.039062-0.10156l-7.1016-24.461c-0.41406-1.4727-1.4531-2.7383-2.8242-3.4961-1.3516-0.73438-2.9922-0.91797-4.5078-0.48828-0.16406 0.019532-2.9492 0.44922-6.875 1.9219-0.039063 0.019531-0.082032 0.019531-0.14453 0.039063-0.023437 0-0.0625 0.019531-0.082031 0.039062l-0.33594 0.125c-0.25 0.082032-0.51953 0.18359-0.76562 0.30469-0.22656 0.10156-0.51953 0.20312-0.78906 0.30469l-0.73047 0.28906c-1.2227 0.51172-2.5312 1.043-3.9258 1.5742l-0.28906 0.125c-0.26953 0.082032-0.5625 0.18359-0.82812 0.30469-2.0547 0.75781-4.2188 1.5312-6.4609 2.2891-0.16406 0.039063-0.23047 0.0625-0.3125 0.082032-1.5391 0.46875-3.0312 0.91797-4.5469 1.3281-1.1406 0.28516-2.2227 0.55469-3.3047 0.79688-0.85156 0.20312-1.6797 0.39062-2.5312 0.57031-3.0742 0.65234-6.043 1.1445-8.0195 1.4531-2.9062 0.46875-5.0898 1-6.418 1.3477-2.0781 0.57031-3.2383 1.043-3.2383 1.0625-2.8438 0.77344-4.6328 3.3281-4.4023 6.0898 0.039062 0.30469 0.0625 0.44922 0.082031 0.59375 0.019531 0.078125 0.039063 0.16406 0.039063 0.24219 0 0.0625 0.023437 0.18359 0.0625 0.28516l3.5742 12.223c0.019532 0.039063 0.019532 0.082031 0.019532 0.10156h0.023437l3.4688 11.977h0.039063c0.042968-0.023437 0.085937-0.023437 0.14844-0.023437 0.41406-0.125 0.85156-0.20312 1.3086-0.20312 1.3516 0 2.6406 0.57422 3.5312 1.5547l3.6758 3.9844c0.0625-0.023437 0.125-0.042968 0.1875-0.0625 0.66406-0.22656 1.5352-0.57031 2.5352-0.96094l-3.0781-26.16c-0.26953-2.5156 1.5586-4.7617 4.0938-5.0469 0.93359-0.10156 1.8477 0.0625 2.6172 0.44922l-0.26953-2.1055c-0.26953-2.4727 1.5586-4.7422 4.0898-5.0664 0.1875-0.023437 0.35156-0.039062 0.53906-0.039062 2.3438 0 4.3398 1.7383 4.6328 4.0234l0.25 2.125c0.66016-0.53125 1.5156-0.89844 2.4492-1 0.1875-0.039062 0.375-0.039062 0.58203-0.039062 0.26953 0 0.53906 0.019531 0.8125 0.0625 1.8477 0.32812 3.3203 1.7578 3.6953 3.6172 0.62109-0.48828 1.3945-0.81641 2.2656-0.91797 0.16406-0.019531 0.33203-0.039062 0.47656-0.039062 2.2656 0 4.1328 1.6758 4.3594 3.8828l1.9531 16.371c3.6797-0.55078 7.043-0.87891 9.3281-1.1016 4.7344-0.42969 7.1016-1.5547 7.125-1.5742 1.7031-0.48828 2.9688-1.4688 3.7422-2.8594 0.76953-1.3477 0.95312-2.9219 0.51953-4.4141z"/>
  <path d="m56.918 82.715-3.3672-28.672c-0.125-1.2461-1.2852-2.1875-2.5312-2.043-0.33203 0.042969-0.62109 0.14062-0.89453 0.26562-0.082031 0.0625-0.14453 0.125-0.22656 0.18359-0.14844 0.10156-0.3125 0.22656-0.4375 0.36719-0.0625 0.082032-0.10156 0.18359-0.16406 0.28516-0.082031 0.14063-0.1875 0.28906-0.25 0.44922-0.019531 0.12109-0.019531 0.24609-0.039063 0.36719-0.039062 0.18359-0.0625 0.34375-0.039062 0.53125 0 0.082031 0.039062 0.16406 0.039062 0.22656 0 0.039063-0.019531 0.0625-0.019531 0.10156l1.6602 14.305c0.0625 0.57031-0.33203 1.0625-0.91016 1.125-0.042969 0.019531-0.085937 0.019531-0.125 0.019531-0.51953 0-0.95312-0.39062-1.0156-0.89844l-1.7031-14.531-0.39453-3.3125c-0.14453-1.3906-1.3711-2.3906-2.8242-2.207-0.35156 0.039062-0.66406 0.14453-0.95703 0.28516-0.10156 0.0625-0.16406 0.14062-0.25 0.20312-0.16406 0.125-0.35156 0.22656-0.49609 0.39062-0.085937 0.082031-0.125 0.20312-0.1875 0.30469-0.10547 0.16406-0.20703 0.32812-0.26953 0.49219-0.042969 0.14062-0.042969 0.26562-0.0625 0.40625-0.019531 0.18359-0.0625 0.36719-0.0625 0.55078 0.042969 0.082032 0.0625 0.18359 0.0625 0.26562 0 0.039063-0.019531 0.0625-0.019531 0.082031l2.0547 17.637c0.058594 0.57031-0.33203 1.082-0.91797 1.1445h-0.12109c-0.51953 0-0.95312-0.39062-1.0156-0.89844l-2.1016-17.84-0.66406-5.9258c-0.16406-1.3086-1.3906-2.2695-2.7422-2.1875-0.039062 0-0.085937-0.019531-0.125-0.019531-1.0586 0.14453-1.8906 0.87891-2.1797 1.8203-0.082032 0.30469-0.125 0.63281-0.082032 0.98047l0.6875 5.6406c0.039063 0.125 0.082032 0.26562 0.082032 0.41016 0 0.023438-0.023438 0.0625-0.023438 0.10156l1.6836 14.348c0.0625 0.55078-0.35156 1.0625-0.91406 1.125-0.039063 0-0.085938 0.019531-0.12109 0.019531-0.51953 0-0.97656-0.39062-1.0391-0.91797l-1.707-14.57c-0.14844-1.043-0.875-1.8594-1.8047-2.1484-0.33594-0.082031-0.66406-0.12109-1.0156-0.082031-1.4336 0.16406-2.4297 1.3906-2.2656 2.8008l3.1367 26.914 0.125 0.96094c0.33203 2.7812-1.1836 3.332-1.8477 3.4336-0.125 0.039063-0.33203 0.0625-0.5625 0.0625-1.1211 0-2.1992-0.61328-2.3281-0.67578-0.10156-0.0625-0.1875-0.125-0.26953-0.22656l-5.1914-5.6797c-0.89062-0.96094-2.4688-1.125-3.5508-0.40625l-0.23047 0.14062c-0.68359 0.63281-0.99609 1.4492-0.89062 2.3086 0.0625 0.53125 0.3125 1.043 0.68359 1.4492l6.2539 6.8672s2.5352 2.5547 4.8203 4.2305c1.4766 1.125 2.9492 1.6758 2.9688 1.6758 1.3711 0.48828 2.8906 0.67578 4.4219 0.48828l13.398-1.5117c1.3945-0.16406 2.7656-0.63281 3.9492-1.3281 2.7812-1.5938 4.6289-4.3945 4.9414-7.5 0.0625-0.41016 0.082031-0.81641 0.082031-1.207-0.019531-0.019531-0.019531-0.18359-0.019531-0.28516z"/>
 </g>
</svg>
