<?xml version="1.0" encoding="UTF-8"?>
<svg width="100pt" height="100pt" version="1.1" viewBox="0 0 100 100" xmlns="http://www.w3.org/2000/svg">
 <g>
  <path d="m84.211 22.758h-49.379c-1.9688 0-3.5742 1.6055-3.5742 3.5742s1.6055 3.5742 3.5742 3.5742h49.379c1.9688 0 3.5742-1.6055 3.5742-3.5742 0.003906-1.9688-1.6016-3.5742-3.5742-3.5742z"/>
  <path d="m78.742 81.168c-4.168 0-7.5625 3.3789-7.5625 7.5625 0 4.168 3.3789 7.5625 7.5625 7.5625 4.168 0 7.5625-3.3789 7.5625-7.5625 0-4.1836-3.3789-7.5625-7.5625-7.5625zm0 10.863c-1.832 0-3.3164-1.4844-3.3164-3.3164 0-1.832 1.4844-3.3164 3.3164-3.3164 1.832 0 3.3164 1.4844 3.3164 3.3164 0.003906 1.832-1.4844 3.3164-3.3164 3.3164z"/>
  <path d="m51.59 84.305-13.105-22.941c-0.0625 0.015625-0.10547 0.015625-0.16797 0.015625h-11.695c-0.0625 0-0.12109 0-0.18359-0.015625l-13.09 22.941c-3.2266 5.6328 0.84766 12.664 7.3477 12.664h23.547c6.5 0 10.574-7.0312 7.3477-12.664z"/>
  <path d="m26.621 58.348h11.695c1.8789 0 3.4102-1.5312 3.4102-3.4102s-1.5312-3.4102-3.4102-3.4102h-11.695c-1.8789 0-3.4102 1.5312-3.4102 3.4102 0 1.8945 1.5312 3.4102 3.4102 3.4102z"/>
  <path d="m37.5 48.5c0.45312-2.7266 1.2734-5.5625 3.2266-8.1523h-16.531c1.9531 2.5898 2.7891 5.4258 3.2422 8.1523z"/>
  <path d="m38.09 8.2109c0.18359 0.78906 0.98438 1.2891 1.7734 1.1055l6.3164-1.4531c0.78906-0.18359 1.2891-0.98438 1.1055-1.7734l-0.4375-1.9102c-0.18359-0.78906-0.98438-1.2891-1.7734-1.1055l-6.3164 1.4531c-0.78906 0.18359-1.2891 0.96875-1.1055 1.7734z"/>
  <path d="m72.848 12.363 6.3164 1.4531c0.78906 0.18359 1.5898-0.31641 1.7734-1.1055l0.4375-1.9102c0.18359-0.78906-0.31641-1.5898-1.1055-1.7734l-6.3164-1.4531c-0.80469-0.18359-1.5898 0.31641-1.7734 1.1055l-0.4375 1.9102c-0.17969 0.80469 0.32031 1.5938 1.1055 1.7734z"/>
  <path d="m37.832 19.727h15.531l-1.1953-5.168c-0.54688-2.4102-2.8477-3.9375-5.2422-3.6211l-0.03125-0.13672h-0.03125l-6.3164 1.4727h-0.015625l0.03125 0.13672c-2.3047 0.77344-3.6953 3.1523-3.1367 5.5625z"/>
  <path d="m78.484 16.926 0.03125-0.13672c-0.015625 0-0.015625 0-0.03125-0.015624l-6.3164-1.4531h-0.015625l-0.046875 0.13672c-2.3945-0.31641-4.6836 1.2109-5.2422 3.6211l-0.15234 0.65234h14.695c-0.49609-1.293-1.543-2.3516-2.9219-2.8047z"/>
  <path d="m63.605 19.727 0.30469-1.332c0.30469-1.332 0.95312-2.5 1.8164-3.4531l-2.1953-2.1055c-0.69531-0.66797-1.8047-0.65234-2.4688 0.0625l-4.9688 5.168 0.37891 1.668z"/>
  <path d="m78.742 78.137c0.30469 0 0.58984 0.015625 0.87891 0.046875l3.7578-45.242-47.727-0.003906 0.36328 4.3789h10.789l-3.668 4.8477c-1.5312 2.0312-2.2266 4.2734-2.6523 6.7109 0.87891 0.31641 1.6836 0.83203 2.3633 1.5156 1.2109 1.2109 1.8945 2.832 1.8945 4.5469 0 2.3945-1.3164 4.4844-3.2578 5.5898l12.727 22.258c2.0625 3.5898 2.0469 7.8789-0.03125 11.469-0.42578 0.74219-0.9375 1.3945-1.5 2h18.652c-1.9688-1.9258-3.1836-4.5898-3.1836-7.5625 0.019531-5.8125 4.7617-10.555 10.594-10.555zm-12.516-22.199c-1.8164 1.7891-4.2109 2.7734-6.7578 2.7734-5 0-9.1211-3.8164-9.6055-8.6953-0.58984 0.58984-1.5469 0.58984-2.1367 0-0.58984-0.58984-0.58984-1.5469 0-2.1367l2.5469-2.5469c0.28906-0.28906 0.66797-0.4375 1.0742-0.4375 0.41016 0 0.78906 0.16797 1.0742 0.4375l2.5469 2.5469c0.58984 0.58984 0.58984 1.5469 0 2.1367-0.30469 0.30469-0.68359 0.4375-1.0742 0.4375-0.33203 0-0.65234-0.13672-0.92578-0.34766 0.51562 3.1523 3.2266 5.5625 6.5156 5.5625 1.7422 0 3.3945-0.66797 4.6367-1.8945 0.58984-0.58984 1.5625-0.57422 2.1367 0.015624 0.57422 0.60547 0.55859 1.5586-0.03125 2.1484zm0.41016-4.3164-2.5469-2.5469c-0.58984-0.58984-0.58984-1.5469 0-2.1367 0.54688-0.54688 1.3945-0.5625 1.9844-0.10547-0.51562-3.1523-3.2266-5.5625-6.5156-5.5625-1.9375 0-3.7734 0.84766-5.0312 2.3164-0.54688 0.63672-1.5 0.71094-2.1367 0.16797-0.63672-0.54688-0.71094-1.5-0.16797-2.1367 1.832-2.1523 4.5156-3.3789 7.332-3.3789 5 0 9.1211 3.8164 9.6055 8.6953 0.58984-0.58984 1.5469-0.58984 2.1367 0s0.58984 1.5469 0 2.1367l-2.5469 2.5469c-0.28906 0.28906-0.66797 0.4375-1.0742 0.4375-0.40234 0.007812-0.75-0.14453-1.0391-0.43359z"/>
 </g>
</svg>
