<?xml version="1.0" encoding="UTF-8"?>
<svg width="100pt" height="100pt" version="1.1" viewBox="0 0 100 100" xmlns="http://www.w3.org/2000/svg">
 <g>
  <path d="m7.9102 62.43c1.6875-0.36719 2.7578-2.0273 2.3945-3.7148-0.61719-2.8477-0.92969-5.7812-0.92969-8.7148 0-22.398 18.227-40.625 40.625-40.625 13.871 0 26.793 7.2266 34.203 18.75h-6.0781c-1.7266 0-3.125 1.3984-3.125 3.125s1.3984 3.125 3.125 3.125h12.5c1.7266 0 3.125-1.3984 3.125-3.125v-12.5c0-1.7266-1.3984-3.125-3.125-3.125s-3.125 1.3984-3.125 3.125v3.1797c-8.7617-11.641-22.66-18.805-37.5-18.805-25.848 0-46.875 21.027-46.875 46.875 0 3.3789 0.35938 6.7578 1.0703 10.035 0.31641 1.4648 1.6094 2.4648 3.0508 2.4648 0.21875 0 0.44141-0.023438 0.66406-0.070312z"/>
  <path d="m95.805 39.965c-0.36719-1.6914-2.0273-2.7539-3.7148-2.3945-1.6836 0.36719-2.7578 2.0273-2.3945 3.7148 0.61328 2.8555 0.92969 5.7852 0.92969 8.7148 0 22.398-18.227 40.625-40.625 40.625-13.871 0-26.793-7.2266-34.203-18.75h6.0781c1.7266 0 3.125-1.3984 3.125-3.125s-1.3984-3.125-3.125-3.125h-12.5c-1.7266 0-3.125 1.3984-3.125 3.125v12.5c0 1.7266 1.3984 3.125 3.125 3.125s3.125-1.3984 3.125-3.125v-3.1836c8.7578 11.641 22.66 18.809 37.5 18.809 25.848 0 46.875-21.027 46.875-46.875 0-3.375-0.35938-6.75-1.0703-10.035z"/>
  <path d="m52.324 22.914c-1.1836-1.3203-3.4648-1.3203-4.6484 0-2.0039 2.2305-19.551 22.109-19.551 33.336 0 12.062 9.8125 21.875 21.875 21.875 12.059 0 21.875-9.8125 21.875-21.875 0-11.227-17.547-31.105-19.551-33.336zm-2.3242 45.836c-1.7266 0-3.125-1.3984-3.125-3.125s1.3984-3.125 3.125-3.125c3.4453 0 6.25-2.7969 6.25-6.2344 0-1.7266 1.3984-3.125 3.125-3.125s3.125 1.3984 3.125 3.125c0 6.8828-5.6055 12.484-12.5 12.484z"/>
 </g>
</svg>
