<?xml version="1.0" encoding="UTF-8"?>
<svg width="100pt" height="100pt" version="1.1" viewBox="0 0 100 100" xmlns="http://www.w3.org/2000/svg">
 <g>
  <path d="m94.891 93.262c-0.64844 0.625-1.5195 0.96875-2.418 0.94922-0.89844-0.015626-1.7539-0.39063-2.3789-1.043l-41.078-42.832c-2.5117-2.5391-6.0508-3.7891-9.6055-3.3945-5.8047 0.38281-11.48-1.8477-15.469-6.0859l-19.629-20.469c-1.1953-1.2422-1.5234-3.0859-0.82812-4.6641 0.69141-1.5781 2.2695-2.582 3.9922-2.543 1.1289 0.015624 2.207 0.48828 2.9844 1.3047l19.641 20.469h-0.003906c2.418 2.4766 5.8203 3.7383 9.2695 3.4297 5.793-0.42969 9.1602 0.9375 16.352 5.2383 17.566 12.031 31.102 26.062 40.262 41.719 1.5312 2.5703 1.0781 5.8594-1.0898 7.9219z"/>
  <path d="m36.969 24.797c0.003906 0.20312-0.082031 0.39844-0.23047 0.53906l-7.1602 6.8516-18.016-18.762c-0.17578-0.1875-0.36328-0.35547-0.57031-0.50781l7.1875-6.9141v-0.003906c0.19922-0.17188 0.46875-0.23828 0.72266-0.18359 0.25 0.066406 0.45312 0.25 0.53906 0.49219 0.91797 2.207 2.168 4.2578 3.7031 6.0859l-3.7969 3.6406v0.003906c-0.23047 0.21094-0.30469 0.54688-0.19141 0.83984 0.11719 0.29297 0.40234 0.48438 0.71484 0.48047 0.20312 0.003906 0.39844-0.074219 0.53906-0.21484l3.7344-3.582c1.4531 1.6211 3.082 3.082 4.8555 4.3516l-4.0859 3.9336c-0.30859 0.29297-0.32031 0.78125-0.03125 1.0938 0.29688 0.30078 0.78516 0.30859 1.0938 0.015625l4.3047-4.1172-0.003906-0.003906c2.2812 1.6484 4.4453 3.457 6.4727 5.4102 0.14062 0.14844 0.21875 0.34375 0.21875 0.55078z"/>
 </g>
</svg>
