<?xml version="1.0" encoding="UTF-8"?>
<svg width="100pt" height="100pt" version="1.1" viewBox="0 0 100 100" xmlns="http://www.w3.org/2000/svg">
 <defs>
  <clipPath id="a">
   <path d="m18.512 19h62.488v62h-62.488z"/>
  </clipPath>
 </defs>
 <path d="m44.695 65.258c-0.15234-0.19141-0.29297-0.39062-0.42578-0.59766-0.089843 0.054688-0.1875 0.09375-0.28125 0.14062-0.30469 0.15234-0.61328 0.28125-0.9375 0.38281-0.14453 0.046875-0.28906 0.089844-0.4375 0.125-0.17578 0.042968-0.35547 0.074218-0.53516 0.097656-0.13672 0.019531-0.27344 0.03125-0.41406 0.039062-0.14062 0.011719-0.28125 0.039063-0.42187 0.039063-1.1875 0-2.2891-0.33984-3.2344-0.91797-1.2188 0.97266-1.9297 2.4336-1.9297 4.0156v4.1289h6.1953v-2.0625c0-0.29297 0.019531-0.58203 0.054687-0.86719 0.011719-0.09375 0.03125-0.18359 0.046875-0.27344 0.027344-0.19531 0.0625-0.38281 0.10938-0.57422 0.023437-0.10156 0.054687-0.20312 0.082031-0.30469 0.050782-0.17578 0.10938-0.34766 0.17188-0.51562 0.039063-0.10156 0.074219-0.19922 0.11328-0.29297 0.078126-0.17969 0.16406-0.35547 0.25391-0.52734 0.039062-0.078125 0.078125-0.15625 0.12109-0.23047 0.13672-0.24219 0.28906-0.48047 0.45703-0.70312 0.023437-0.03125 0.050781-0.0625 0.074218-0.09375 0.14844-0.19141 0.30859-0.37891 0.47656-0.55469 0.0625-0.066407 0.12891-0.13281 0.19531-0.19531 0.085937-0.085937 0.17187-0.17578 0.26562-0.25781" fill-rule="evenodd"/>
 <path d="m60.328 62.492c0.007813-0.003907 0.011719-0.003907 0.019531-0.007813 0.92969-0.75781 1.543-1.8984 1.543-3.1953 0-2.2734-1.8555-4.1289-4.1328-4.1289-1.4961 0-2.8711 0.83594-3.5938 2.1328 0.71484 0.82031 1.2188 1.8281 1.4219 2.9414 0.003906 0.019531 0.007812 0.039063 0.011718 0.0625 0.058594 0.34375 0.097656 0.69531 0.097656 1.0586 0 0.46875-0.058593 0.92188-0.15625 1.3594 1.4883 0.98047 3.4023 0.89844 4.7891-0.22266" fill-rule="evenodd"/>
 <path d="m43.414 60.234c0.20313-1.1133 0.70703-2.1211 1.4219-2.9414-0.71875-1.2969-2.0938-2.1328-3.5938-2.1328-2.2812 0-4.1328 1.8555-4.1328 4.1328 0 1.293 0.61328 2.4336 1.5469 3.1914 0.003906 0.003906 0.007812 0.003906 0.011719 0.007813 1.3906 1.1211 3.3047 1.2031 4.793 0.22266-0.097657-0.4375-0.15625-0.89062-0.15625-1.3594 0-0.36328 0.039062-0.71484 0.097656-1.0625 0.003906-0.019531 0.007812-0.039063 0.011718-0.058594" fill-rule="evenodd"/>
 <path d="m45.637 62.77c0.003906 0.007813 0.003906 0.019531 0.007812 0.027344 0.035157 0.097656 0.074219 0.19141 0.11719 0.28516 0.003906 0.007813 0.011719 0.019531 0.015625 0.027344 0.13281 0.27734 0.29297 0.53516 0.48438 0.77734 0.003906 0.007812 0.007812 0.011719 0.015625 0.023437 0.1875 0.23047 0.40234 0.44922 0.64062 0.64062 0.003906 0.003907 0.007812 0.003907 0.011719 0.007813 1.5039 1.2148 3.6328 1.2148 5.1406 0 0.003907-0.003906 0.007813-0.003906 0.011719-0.007813 0.24219-0.19141 0.45312-0.41016 0.64062-0.64062 0.003906-0.011718 0.011719-0.015625 0.019532-0.023437 0.1875-0.24219 0.34766-0.5 0.48047-0.77734 0.003906-0.007813 0.011719-0.019531 0.015625-0.027344 0.042969-0.09375 0.082031-0.1875 0.11719-0.28516 0.003906-0.007813 0.003906-0.019531 0.003906-0.027344 0.089844-0.23828 0.15234-0.46875 0.19922-0.69922 0.039062-0.23047 0.070312-0.46875 0.070312-0.71484 0-0.28906-0.03125-0.57422-0.089844-0.85156-0.007812-0.039062-0.027343-0.078125-0.039062-0.12109-0.058594-0.23828-0.12891-0.46875-0.22656-0.69141-0.007813-0.015625-0.015626-0.027344-0.023438-0.039062-0.23438-0.50781-0.57422-0.96875-1.0117-1.3594 0-0.003907-0.003906-0.007813-0.007812-0.011719-0.72656-0.64844-1.6797-1.0547-2.7305-1.0547s-2 0.40625-2.7305 1.0547c-0.003906 0.003906-0.003906 0.007812-0.007812 0.011719-0.4375 0.39062-0.77734 0.85156-1.0117 1.3594-0.007812 0.011718-0.015625 0.023437-0.023438 0.039062-0.097656 0.22266-0.16797 0.45312-0.22656 0.69141-0.011719 0.042969-0.03125 0.082032-0.039062 0.12109-0.058594 0.27734-0.089844 0.5625-0.089844 0.85156 0 0.24609 0.03125 0.48438 0.074218 0.71484 0.042969 0.23047 0.10547 0.46094 0.19141 0.69922" fill-rule="evenodd"/>
 <path d="m26.789 72.711h7.2266v-4.1289c0-2.0938 0.89453-4.0195 2.4258-5.3789-0.87109-1.0664-1.3945-2.4297-1.3945-3.9102 0-3.418 2.7773-6.1953 6.1953-6.1953 2.125 0 4.0703 1.125 5.1914 2.8828 0.90625-0.51953 1.9531-0.82031 3.0664-0.82031s2.1602 0.30078 3.0664 0.82031c1.1211-1.7578 3.0664-2.8828 5.1914-2.8828 3.418 0 6.1953 2.7773 6.1953 6.1953 0 1.4805-0.52344 2.8438-1.3945 3.9102 1.5312 1.3594 2.4258 3.2852 2.4258 5.3789v4.1289h7.2266v-26.84h-45.422z" fill-rule="evenodd"/>
 <g clip-path="url(#a)">
  <path d="m74.277 73.746c0 0.57031-0.46094 1.0312-1.0312 1.0312h-47.492c-0.57031 0-1.0312-0.46094-1.0312-1.0312v-28.91c0-0.56641 0.46094-1.0312 1.0312-1.0312h47.492c0.57031 0 1.0312 0.46484 1.0312 1.0312zm-26.469-46.824c0.007812 0 0.015625 0.003906 0.023437 0.007813 0.51172 0.22656 1.0742 0.35547 1.668 0.35547s1.1562-0.12891 1.668-0.35547c0.007812-0.003907 0.015625-0.007813 0.023437-0.007813l12.98 10.688h-29.344zm1.6914-5.8281c1.1406 0 2.0664 0.92578 2.0664 2.0625 0 0.69141-0.34375 1.3008-0.86719 1.6719 0 0.003906 0 0.003906-0.003907 0.003906-0.17187 0.125-0.35937 0.21484-0.55469 0.27734-0.015625 0.003906-0.027344 0.007813-0.042969 0.015625-0.39062 0.11719-0.80469 0.11719-1.1953 0-0.015625-0.007812-0.027344-0.011719-0.042969-0.015625-0.19531-0.0625-0.38281-0.15234-0.55469-0.27734-0.003907 0-0.003907 0-0.003907-0.003906-0.52344-0.37109-0.86719-0.98047-0.86719-1.6719 0-1.1367 0.92578-2.0625 2.0664-2.0625zm27.875 16.516h-9.9531l-14.602-12.02c0.50391-0.68359 0.80859-1.5195 0.80859-2.4336 0-2.2773-1.8516-4.1289-4.1289-4.1289s-4.1289 1.8516-4.1289 4.1289c0 0.91406 0.30469 1.75 0.80859 2.4336l-14.602 12.02h-9.9531c-1.707 0-3.0977 1.3906-3.0977 3.0977v37.168c0 1.707 1.3906 3.0977 3.0977 3.0977h55.75c1.707 0 3.0977-1.3906 3.0977-3.0977v-37.168c0-1.707-1.3906-3.0977-3.0977-3.0977z" fill-rule="evenodd"/>
 </g>
 <path d="m60.992 64.566c-0.94141 0.57812-2.0469 0.91797-3.2344 0.91797-0.14062 0-0.28125-0.027344-0.42578-0.039063-0.13672-0.007812-0.27344-0.019531-0.41016-0.039062-0.17969-0.023438-0.35938-0.058594-0.53516-0.097656-0.14844-0.035156-0.28906-0.078125-0.43359-0.125-0.33203-0.10156-0.64844-0.23438-0.96094-0.39453-0.085938-0.042968-0.17578-0.078124-0.26172-0.12891-0.13281 0.20703-0.26953 0.40625-0.42578 0.59766 0.09375 0.082032 0.17578 0.17188 0.26562 0.25781 0.066407 0.0625 0.13281 0.12891 0.19922 0.19531 0.16406 0.17578 0.32422 0.36328 0.47266 0.55469 0.023437 0.03125 0.050781 0.0625 0.074218 0.09375 0.16797 0.22656 0.32031 0.46094 0.45703 0.70312 0.042968 0.074219 0.078124 0.15234 0.12109 0.23047 0.089844 0.17188 0.17578 0.34766 0.25391 0.52734 0.039062 0.09375 0.078124 0.19141 0.11328 0.29297 0.0625 0.16797 0.12109 0.33984 0.17188 0.51562 0.027344 0.10156 0.058594 0.20312 0.082031 0.30469 0.046875 0.19141 0.082031 0.37891 0.10938 0.57422 0.015625 0.089844 0.035156 0.17969 0.046875 0.27344 0.035156 0.28516 0.054687 0.57422 0.054687 0.86719v2.0625h6.1953v-4.1289c0-1.582-0.71094-3.0391-1.9297-4.0156" fill-rule="evenodd"/>
 <path d="m54.586 69.816c-0.019532-0.14062-0.046876-0.27734-0.078126-0.41406-0.019531-0.078125-0.042968-0.15234-0.066406-0.22656-0.035156-0.125-0.074218-0.24609-0.12109-0.36719-0.027343-0.074219-0.0625-0.14844-0.09375-0.22266-0.050781-0.11719-0.10547-0.23047-0.16406-0.33984-0.039062-0.074219-0.074219-0.14453-0.11719-0.21484-0.066406-0.10938-0.13672-0.21484-0.21094-0.32031-0.042969-0.0625-0.085937-0.12891-0.13672-0.19141-0.082031-0.10938-0.17188-0.21094-0.26562-0.3125-0.046875-0.050781-0.089843-0.10547-0.14062-0.15625-0.125-0.12891-0.26172-0.25-0.39844-0.36719-0.023438-0.015625-0.039063-0.035156-0.0625-0.050782-0.94141 0.57813-2.0469 0.91797-3.2305 0.91797s-2.2891-0.33984-3.2344-0.91797c-0.019531 0.015626-0.035156 0.035157-0.058594 0.050782-0.14062 0.11719-0.27344 0.23828-0.39844 0.36719-0.050782 0.050781-0.09375 0.10156-0.14062 0.15625-0.09375 0.10156-0.18359 0.20312-0.26562 0.3125-0.050782 0.0625-0.09375 0.12891-0.13672 0.19141-0.074219 0.10547-0.14453 0.21094-0.21094 0.32031-0.039063 0.070312-0.078126 0.14062-0.11719 0.21484-0.058594 0.10938-0.11328 0.22266-0.16406 0.33984-0.03125 0.074218-0.0625 0.14844-0.09375 0.22266-0.046876 0.12109-0.085938 0.24219-0.12109 0.36719-0.023438 0.074219-0.046875 0.14844-0.066406 0.22656-0.03125 0.13672-0.058594 0.27344-0.078126 0.41406-0.011718 0.066406-0.027343 0.13281-0.035156 0.19922-0.027344 0.20703-0.042968 0.41797-0.042968 0.63281v2.0664h10.324v-2.0664c0-0.21484-0.011718-0.42578-0.039062-0.63281-0.007813-0.066406-0.023438-0.13281-0.035156-0.19922" fill-rule="evenodd"/>
</svg>
