<?xml version="1.0" encoding="UTF-8"?>
<svg width="100pt" height="100pt" version="1.1" viewBox="0 0 100 100" xmlns="http://www.w3.org/2000/svg">
 <g>
  <path d="m76.211 32.859-19-12.672v0.003906c-4.3672-2.9102-10.055-2.9102-14.422 0l-19 12.672v-0.003906c-3.6172 2.4102-5.7891 6.4727-5.7891 10.82v26.32c0 6.6289 5.3711 12 12 12h40c6.6289 0 12-5.3711 12-12v-26.32c0-4.3477-2.1719-8.4102-5.7891-10.82zm-2.2109 37.141c0 1.0625-0.42188 2.0781-1.1719 2.8281s-1.7656 1.1719-2.8281 1.1719h-40c-2.2109 0-4-1.7891-4-4v-26.32c0-1.6719 0.83594-3.2344 2.2305-4.1602l19-12.672v0.003906c1.6797-1.1211 3.8711-1.1211 5.5508 0l19 12.672v-0.003907c1.3867 0.92969 2.2188 2.4883 2.2188 4.1602z"/>
  <path d="m44 48c0 5.332-8 5.332-8 0s8-5.332 8 0"/>
  <path d="m64 48c0 5.332-8 5.332-8 0s8-5.332 8 0"/>
  <path d="m54.879 56h-9.7578c-1.3867-0.003906-2.5938 0.94531-2.9219 2.2891-0.28516 1.2461-0.25781 2.5391 0.082031 3.7695 1.0469 3.8633 4.7891 6.3555 8.7578 5.8359s6.9414-3.8906 6.9609-7.8945c0-0.57031-0.0625-1.1406-0.19141-1.6992-0.32422-1.3555-1.5352-2.3086-2.9297-2.3008z"/>
 </g>
</svg>
