<svg width="96" height="96" viewBox="0 0 96 96" fill="none" xmlns="http://www.w3.org/2000/svg">
<path d="M26.368 52.652C26.368 51.052 25.248 50.124 23.424 50.124H19.456V55.084H23.488C25.312 55.084 26.368 54.252 26.368 52.652ZM25.824 43.788C25.824 42.252 24.832 41.42 23.04 41.42H19.456V46.124H23.04C24.832 46.124 25.824 45.324 25.824 43.788ZM31.904 53.388C31.904 57.1 29.184 59.5 24.448 59.5H13.984V37.036H24.096C28.672 37.036 31.392 39.308 31.392 42.86C31.392 45.58 29.76 47.34 27.584 47.98C30.208 48.524 31.904 50.828 31.904 53.388ZM35.0778 59.5V35.82H40.5498V59.5H35.0778ZM62.1473 41.644V59.5H56.6753V57.068C55.5873 58.604 53.6673 59.692 51.2673 59.692C47.1393 59.692 44.3553 56.844 44.3553 52.076V41.644H49.7953V51.34C49.7953 53.772 51.1713 55.116 53.2193 55.116C55.3313 55.116 56.6753 53.772 56.6753 51.34V41.644H62.1473ZM73.9498 45.772C72.1578 45.772 70.7818 46.86 70.4618 48.844H77.3098C77.3098 46.892 75.7738 45.772 73.9498 45.772ZM82.4938 53.58C81.6298 57.068 78.4618 59.756 74.0138 59.756C68.7658 59.756 64.9898 56.236 64.9898 50.572C64.9898 44.908 68.7018 41.388 74.0138 41.388C79.2298 41.388 82.9097 44.844 82.9097 50.284C82.9097 50.796 82.8778 51.34 82.8138 51.884H70.4298C70.6218 54.22 72.0618 55.308 73.8218 55.308C75.3578 55.308 76.2218 54.54 76.6698 53.58H82.4938Z" fill="black"/>
</svg>
