<?xml version="1.0" encoding="UTF-8"?>
<svg width="100pt" height="100pt" version="1.1" viewBox="0 0 100 100" xmlns="http://www.w3.org/2000/svg">
 <g fill-rule="evenodd">
  <path d="m52.988 18.406c-1.7969-1.2578-4.1797-1.2578-5.9766 0l-29.164 20.414c-1.3945 0.97656-2.2227 2.5703-2.2227 4.2695v36.078c0 2.875 2.332 5.207 5.207 5.207h58.336c2.875 0 5.207-2.332 5.207-5.207v-36.078c0-1.6992-0.82812-3.293-2.2227-4.2695zm-9.5586-5.1211c3.9453-2.7617 9.1953-2.7617 13.141 0l29.168 20.418c3.0625 2.1445 4.8867 5.6484 4.8867 9.3867v36.078c0 6.3281-5.1289 11.457-11.457 11.457h-58.336c-6.3281 0-11.457-5.1289-11.457-11.457v-36.078c0-3.7383 1.8242-7.2422 4.8867-9.3867z"/>
  <path d="m36.676 43.617c1.2227 1.2188 1.2266 3.1953 0.011719 4.418-2.7734 2.7891-4.3945 6.3984-4.3945 10.297 0 3.9023 1.6211 7.5078 4.3945 10.297 1.2148 1.2227 1.2109 3.2031-0.011719 4.4219-1.2227 1.2148-3.2031 1.2109-4.4219-0.015625-3.8242-3.8438-6.2109-8.9961-6.2109-14.703 0-5.7031 2.3867-10.855 6.2109-14.703 1.2188-1.2227 3.1992-1.2266 4.4219-0.011718zm26.648 0c1.2227-1.2148 3.2031-1.2109 4.4219 0.011718 3.8242 3.8477 6.2109 9 6.2109 14.703 0 5.707-2.3867 10.859-6.2109 14.703-1.2188 1.2266-3.1992 1.2305-4.4219 0.015625-1.2227-1.2188-1.2266-3.1992-0.011719-4.4219 2.7734-2.7891 4.3945-6.3945 4.3945-10.297 0-3.8984-1.6211-7.5078-4.3945-10.297-1.2148-1.2227-1.2109-3.1992 0.011719-4.418z"/>
  <path d="m50 53.125c-2.875 0-5.207 2.332-5.207 5.207 0 2.8789 2.332 5.2109 5.207 5.2109s5.207-2.332 5.207-5.2109c0-2.875-2.332-5.207-5.207-5.207zm-11.457 5.207c0-6.3281 5.1289-11.457 11.457-11.457s11.457 5.1289 11.457 11.457-5.1289 11.461-11.457 11.461-11.457-5.1328-11.457-11.461z"/>
 </g>
</svg>
